<mxfile host="app.diagrams.net" modified="2023-11-23T10:09:50.042Z" agent="Mozilla/5.0 (Windows NT 10.0; Win64; x64) AppleWebKit/537.36 (KHTML, like Gecko) Chrome/119.0.0.0 Safari/537.36 Edg/119.0.0.0" etag="6QGk6RNowdBSo7_iOAxy" version="22.1.3" type="github">
  <diagram name="페이지-1" id="9zwk9lLUABTVpLlraMho">
    <mxGraphModel dx="3040" dy="1954" grid="1" gridSize="10" guides="1" tooltips="1" connect="1" arrows="1" fold="1" page="1" pageScale="1" pageWidth="827" pageHeight="1169" math="0" shadow="0">
      <root>
        <mxCell id="0" />
        <mxCell id="1" parent="0" />
        <mxCell id="ZRCCH3VUaIyYWiTP1tGq-1" value="" style="group" parent="1" vertex="1" connectable="0">
          <mxGeometry x="-1260" y="-260" width="1234.02" height="590" as="geometry" />
        </mxCell>
        <mxCell id="_x3-6fZufxSY2HoPdJOf-92" value="USER" style="shape=table;startSize=30;container=1;collapsible=1;childLayout=tableLayout;fixedRows=1;rowLines=0;fontStyle=1;align=center;resizeLast=1;html=1;fillColor=#fff2cc;strokeColor=#000000;" parent="ZRCCH3VUaIyYWiTP1tGq-1" vertex="1">
          <mxGeometry width="180" height="210" as="geometry" />
        </mxCell>
        <mxCell id="_x3-6fZufxSY2HoPdJOf-359" value="" style="shape=tableRow;horizontal=0;startSize=0;swimlaneHead=0;swimlaneBody=0;fillColor=none;collapsible=0;dropTarget=0;points=[[0,0.5],[1,0.5]];portConstraint=eastwest;top=0;left=0;right=0;bottom=0;" parent="_x3-6fZufxSY2HoPdJOf-92" vertex="1">
          <mxGeometry y="30" width="180" height="30" as="geometry" />
        </mxCell>
        <mxCell id="_x3-6fZufxSY2HoPdJOf-360" value="PK" style="shape=partialRectangle;connectable=0;fillColor=none;top=0;left=0;bottom=0;right=0;editable=1;overflow=hidden;whiteSpace=wrap;html=1;" parent="_x3-6fZufxSY2HoPdJOf-359" vertex="1">
          <mxGeometry width="30" height="30" as="geometry">
            <mxRectangle width="30" height="30" as="alternateBounds" />
          </mxGeometry>
        </mxCell>
        <mxCell id="_x3-6fZufxSY2HoPdJOf-361" value="USER_ID" style="shape=partialRectangle;connectable=0;fillColor=none;top=0;left=0;bottom=0;right=0;align=left;spacingLeft=6;overflow=hidden;whiteSpace=wrap;html=1;" parent="_x3-6fZufxSY2HoPdJOf-359" vertex="1">
          <mxGeometry x="30" width="150" height="30" as="geometry">
            <mxRectangle width="150" height="30" as="alternateBounds" />
          </mxGeometry>
        </mxCell>
        <mxCell id="_x3-6fZufxSY2HoPdJOf-244" value="" style="shape=tableRow;horizontal=0;startSize=0;swimlaneHead=0;swimlaneBody=0;fillColor=none;collapsible=0;dropTarget=0;points=[[0,0.5],[1,0.5]];portConstraint=eastwest;top=0;left=0;right=0;bottom=0;" parent="_x3-6fZufxSY2HoPdJOf-92" vertex="1">
          <mxGeometry y="60" width="180" height="30" as="geometry" />
        </mxCell>
        <mxCell id="_x3-6fZufxSY2HoPdJOf-245" value="" style="shape=partialRectangle;connectable=0;fillColor=none;top=0;left=0;bottom=0;right=0;editable=1;overflow=hidden;whiteSpace=wrap;html=1;" parent="_x3-6fZufxSY2HoPdJOf-244" vertex="1">
          <mxGeometry width="30" height="30" as="geometry">
            <mxRectangle width="30" height="30" as="alternateBounds" />
          </mxGeometry>
        </mxCell>
        <mxCell id="_x3-6fZufxSY2HoPdJOf-246" value="NAME" style="shape=partialRectangle;connectable=0;fillColor=none;top=0;left=0;bottom=0;right=0;align=left;spacingLeft=6;overflow=hidden;whiteSpace=wrap;html=1;" parent="_x3-6fZufxSY2HoPdJOf-244" vertex="1">
          <mxGeometry x="30" width="150" height="30" as="geometry">
            <mxRectangle width="150" height="30" as="alternateBounds" />
          </mxGeometry>
        </mxCell>
        <mxCell id="_x3-6fZufxSY2HoPdJOf-102" value="" style="shape=tableRow;horizontal=0;startSize=0;swimlaneHead=0;swimlaneBody=0;fillColor=none;collapsible=0;dropTarget=0;points=[[0,0.5],[1,0.5]];portConstraint=eastwest;top=0;left=0;right=0;bottom=0;" parent="_x3-6fZufxSY2HoPdJOf-92" vertex="1">
          <mxGeometry y="90" width="180" height="30" as="geometry" />
        </mxCell>
        <mxCell id="_x3-6fZufxSY2HoPdJOf-103" value="" style="shape=partialRectangle;connectable=0;fillColor=none;top=0;left=0;bottom=0;right=0;editable=1;overflow=hidden;whiteSpace=wrap;html=1;" parent="_x3-6fZufxSY2HoPdJOf-102" vertex="1">
          <mxGeometry width="30" height="30" as="geometry">
            <mxRectangle width="30" height="30" as="alternateBounds" />
          </mxGeometry>
        </mxCell>
        <mxCell id="_x3-6fZufxSY2HoPdJOf-104" value="EMAIL" style="shape=partialRectangle;connectable=0;fillColor=none;top=0;left=0;bottom=0;right=0;align=left;spacingLeft=6;overflow=hidden;whiteSpace=wrap;html=1;" parent="_x3-6fZufxSY2HoPdJOf-102" vertex="1">
          <mxGeometry x="30" width="150" height="30" as="geometry">
            <mxRectangle width="150" height="30" as="alternateBounds" />
          </mxGeometry>
        </mxCell>
        <mxCell id="_x3-6fZufxSY2HoPdJOf-99" value="" style="shape=tableRow;horizontal=0;startSize=0;swimlaneHead=0;swimlaneBody=0;fillColor=none;collapsible=0;dropTarget=0;points=[[0,0.5],[1,0.5]];portConstraint=eastwest;top=0;left=0;right=0;bottom=0;" parent="_x3-6fZufxSY2HoPdJOf-92" vertex="1">
          <mxGeometry y="120" width="180" height="30" as="geometry" />
        </mxCell>
        <mxCell id="_x3-6fZufxSY2HoPdJOf-100" value="" style="shape=partialRectangle;connectable=0;fillColor=none;top=0;left=0;bottom=0;right=0;editable=1;overflow=hidden;whiteSpace=wrap;html=1;" parent="_x3-6fZufxSY2HoPdJOf-99" vertex="1">
          <mxGeometry width="30" height="30" as="geometry">
            <mxRectangle width="30" height="30" as="alternateBounds" />
          </mxGeometry>
        </mxCell>
        <mxCell id="_x3-6fZufxSY2HoPdJOf-101" value="PASSWORD" style="shape=partialRectangle;connectable=0;fillColor=none;top=0;left=0;bottom=0;right=0;align=left;spacingLeft=6;overflow=hidden;whiteSpace=wrap;html=1;" parent="_x3-6fZufxSY2HoPdJOf-99" vertex="1">
          <mxGeometry x="30" width="150" height="30" as="geometry">
            <mxRectangle width="150" height="30" as="alternateBounds" />
          </mxGeometry>
        </mxCell>
        <mxCell id="_x3-6fZufxSY2HoPdJOf-105" value="" style="shape=tableRow;horizontal=0;startSize=0;swimlaneHead=0;swimlaneBody=0;fillColor=none;collapsible=0;dropTarget=0;points=[[0,0.5],[1,0.5]];portConstraint=eastwest;top=0;left=0;right=0;bottom=0;" parent="_x3-6fZufxSY2HoPdJOf-92" vertex="1">
          <mxGeometry y="150" width="180" height="30" as="geometry" />
        </mxCell>
        <mxCell id="_x3-6fZufxSY2HoPdJOf-106" value="" style="shape=partialRectangle;connectable=0;fillColor=none;top=0;left=0;bottom=0;right=0;editable=1;overflow=hidden;whiteSpace=wrap;html=1;" parent="_x3-6fZufxSY2HoPdJOf-105" vertex="1">
          <mxGeometry width="30" height="30" as="geometry">
            <mxRectangle width="30" height="30" as="alternateBounds" />
          </mxGeometry>
        </mxCell>
        <mxCell id="_x3-6fZufxSY2HoPdJOf-107" value="PHONE_NUMBER" style="shape=partialRectangle;connectable=0;fillColor=none;top=0;left=0;bottom=0;right=0;align=left;spacingLeft=6;overflow=hidden;whiteSpace=wrap;html=1;" parent="_x3-6fZufxSY2HoPdJOf-105" vertex="1">
          <mxGeometry x="30" width="150" height="30" as="geometry">
            <mxRectangle width="150" height="30" as="alternateBounds" />
          </mxGeometry>
        </mxCell>
        <mxCell id="_x3-6fZufxSY2HoPdJOf-350" value="" style="shape=tableRow;horizontal=0;startSize=0;swimlaneHead=0;swimlaneBody=0;fillColor=none;collapsible=0;dropTarget=0;points=[[0,0.5],[1,0.5]];portConstraint=eastwest;top=0;left=0;right=0;bottom=0;" parent="_x3-6fZufxSY2HoPdJOf-92" vertex="1">
          <mxGeometry y="180" width="180" height="30" as="geometry" />
        </mxCell>
        <mxCell id="_x3-6fZufxSY2HoPdJOf-351" value="" style="shape=partialRectangle;connectable=0;fillColor=none;top=0;left=0;bottom=0;right=0;editable=1;overflow=hidden;whiteSpace=wrap;html=1;" parent="_x3-6fZufxSY2HoPdJOf-350" vertex="1">
          <mxGeometry width="30" height="30" as="geometry">
            <mxRectangle width="30" height="30" as="alternateBounds" />
          </mxGeometry>
        </mxCell>
        <mxCell id="_x3-6fZufxSY2HoPdJOf-352" value="START_DATE" style="shape=partialRectangle;connectable=0;fillColor=none;top=0;left=0;bottom=0;right=0;align=left;spacingLeft=6;overflow=hidden;whiteSpace=wrap;html=1;" parent="_x3-6fZufxSY2HoPdJOf-350" vertex="1">
          <mxGeometry x="30" width="150" height="30" as="geometry">
            <mxRectangle width="150" height="30" as="alternateBounds" />
          </mxGeometry>
        </mxCell>
        <mxCell id="_x3-6fZufxSY2HoPdJOf-108" value="PLANT" style="shape=table;startSize=30;container=1;collapsible=1;childLayout=tableLayout;fixedRows=1;rowLines=0;fontStyle=1;align=center;resizeLast=1;html=1;strokeColor=#000000;verticalAlign=middle;strokeWidth=1;swimlaneLine=1;rounded=0;fillColor=#fff2cc;" parent="ZRCCH3VUaIyYWiTP1tGq-1" vertex="1">
          <mxGeometry x="70" y="410" width="220" height="180" as="geometry">
            <mxRectangle x="-440" y="410" width="80" height="30" as="alternateBounds" />
          </mxGeometry>
        </mxCell>
        <mxCell id="_x3-6fZufxSY2HoPdJOf-241" value="" style="shape=tableRow;horizontal=0;startSize=0;swimlaneHead=0;swimlaneBody=0;fillColor=none;collapsible=0;dropTarget=0;points=[[0,0.5],[1,0.5]];portConstraint=eastwest;top=0;left=0;right=0;bottom=0;strokeColor=default;" parent="_x3-6fZufxSY2HoPdJOf-108" vertex="1">
          <mxGeometry y="30" width="220" height="30" as="geometry" />
        </mxCell>
        <mxCell id="_x3-6fZufxSY2HoPdJOf-242" value="PK" style="shape=partialRectangle;connectable=0;fillColor=none;top=0;left=0;bottom=0;right=0;editable=1;overflow=hidden;whiteSpace=wrap;html=1;" parent="_x3-6fZufxSY2HoPdJOf-241" vertex="1">
          <mxGeometry width="30" height="30" as="geometry">
            <mxRectangle width="30" height="30" as="alternateBounds" />
          </mxGeometry>
        </mxCell>
        <mxCell id="_x3-6fZufxSY2HoPdJOf-243" value="PLANT_CODE" style="shape=partialRectangle;connectable=0;fillColor=none;top=0;left=0;bottom=0;right=0;align=left;spacingLeft=6;overflow=hidden;whiteSpace=wrap;html=1;" parent="_x3-6fZufxSY2HoPdJOf-241" vertex="1">
          <mxGeometry x="30" width="190" height="30" as="geometry">
            <mxRectangle width="190" height="30" as="alternateBounds" />
          </mxGeometry>
        </mxCell>
        <mxCell id="_x3-6fZufxSY2HoPdJOf-353" value="" style="shape=tableRow;horizontal=0;startSize=0;swimlaneHead=0;swimlaneBody=0;fillColor=none;collapsible=0;dropTarget=0;points=[[0,0.5],[1,0.5]];portConstraint=eastwest;top=0;left=0;right=0;bottom=0;strokeColor=default;" parent="_x3-6fZufxSY2HoPdJOf-108" vertex="1">
          <mxGeometry y="60" width="220" height="30" as="geometry" />
        </mxCell>
        <mxCell id="_x3-6fZufxSY2HoPdJOf-354" value="" style="shape=partialRectangle;connectable=0;fillColor=none;top=0;left=0;bottom=0;right=0;editable=1;overflow=hidden;whiteSpace=wrap;html=1;" parent="_x3-6fZufxSY2HoPdJOf-353" vertex="1">
          <mxGeometry width="30" height="30" as="geometry">
            <mxRectangle width="30" height="30" as="alternateBounds" />
          </mxGeometry>
        </mxCell>
        <mxCell id="_x3-6fZufxSY2HoPdJOf-355" value="PLANT_NAME" style="shape=partialRectangle;connectable=0;fillColor=none;top=0;left=0;bottom=0;right=0;align=left;spacingLeft=6;overflow=hidden;whiteSpace=wrap;html=1;" parent="_x3-6fZufxSY2HoPdJOf-353" vertex="1">
          <mxGeometry x="30" width="190" height="30" as="geometry">
            <mxRectangle width="190" height="30" as="alternateBounds" />
          </mxGeometry>
        </mxCell>
        <mxCell id="_x3-6fZufxSY2HoPdJOf-115" value="" style="shape=tableRow;horizontal=0;startSize=0;swimlaneHead=0;swimlaneBody=0;fillColor=none;collapsible=0;dropTarget=0;points=[[0,0.5],[1,0.5]];portConstraint=eastwest;top=0;left=0;right=0;bottom=0;" parent="_x3-6fZufxSY2HoPdJOf-108" vertex="1">
          <mxGeometry y="90" width="220" height="30" as="geometry" />
        </mxCell>
        <mxCell id="_x3-6fZufxSY2HoPdJOf-116" value="" style="shape=partialRectangle;connectable=0;fillColor=none;top=0;left=0;bottom=0;right=0;editable=1;overflow=hidden;whiteSpace=wrap;html=1;" parent="_x3-6fZufxSY2HoPdJOf-115" vertex="1">
          <mxGeometry width="30" height="30" as="geometry">
            <mxRectangle width="30" height="30" as="alternateBounds" />
          </mxGeometry>
        </mxCell>
        <mxCell id="_x3-6fZufxSY2HoPdJOf-117" value="PLANT_INFO" style="shape=partialRectangle;connectable=0;fillColor=none;top=0;left=0;bottom=0;right=0;align=left;spacingLeft=6;overflow=hidden;whiteSpace=wrap;html=1;" parent="_x3-6fZufxSY2HoPdJOf-115" vertex="1">
          <mxGeometry x="30" width="190" height="30" as="geometry">
            <mxRectangle width="190" height="30" as="alternateBounds" />
          </mxGeometry>
        </mxCell>
        <mxCell id="_x3-6fZufxSY2HoPdJOf-118" value="" style="shape=tableRow;horizontal=0;startSize=0;swimlaneHead=0;swimlaneBody=0;fillColor=none;collapsible=0;dropTarget=0;points=[[0,0.5],[1,0.5]];portConstraint=eastwest;top=0;left=0;right=0;bottom=0;" parent="_x3-6fZufxSY2HoPdJOf-108" vertex="1">
          <mxGeometry y="120" width="220" height="30" as="geometry" />
        </mxCell>
        <mxCell id="_x3-6fZufxSY2HoPdJOf-119" value="" style="shape=partialRectangle;connectable=0;fillColor=none;top=0;left=0;bottom=0;right=0;editable=1;overflow=hidden;whiteSpace=wrap;html=1;" parent="_x3-6fZufxSY2HoPdJOf-118" vertex="1">
          <mxGeometry width="30" height="30" as="geometry">
            <mxRectangle width="30" height="30" as="alternateBounds" />
          </mxGeometry>
        </mxCell>
        <mxCell id="_x3-6fZufxSY2HoPdJOf-120" value="PLANT_MAX_TEMP" style="shape=partialRectangle;connectable=0;fillColor=none;top=0;left=0;bottom=0;right=0;align=left;spacingLeft=6;overflow=hidden;whiteSpace=wrap;html=1;" parent="_x3-6fZufxSY2HoPdJOf-118" vertex="1">
          <mxGeometry x="30" width="190" height="30" as="geometry">
            <mxRectangle width="190" height="30" as="alternateBounds" />
          </mxGeometry>
        </mxCell>
        <mxCell id="_x3-6fZufxSY2HoPdJOf-121" value="" style="shape=tableRow;horizontal=0;startSize=0;swimlaneHead=0;swimlaneBody=0;fillColor=none;collapsible=0;dropTarget=0;points=[[0,0.5],[1,0.5]];portConstraint=eastwest;top=0;left=0;right=0;bottom=0;" parent="_x3-6fZufxSY2HoPdJOf-108" vertex="1">
          <mxGeometry y="150" width="220" height="30" as="geometry" />
        </mxCell>
        <mxCell id="_x3-6fZufxSY2HoPdJOf-122" value="" style="shape=partialRectangle;connectable=0;fillColor=none;top=0;left=0;bottom=0;right=0;editable=1;overflow=hidden;whiteSpace=wrap;html=1;" parent="_x3-6fZufxSY2HoPdJOf-121" vertex="1">
          <mxGeometry width="30" height="30" as="geometry">
            <mxRectangle width="30" height="30" as="alternateBounds" />
          </mxGeometry>
        </mxCell>
        <mxCell id="_x3-6fZufxSY2HoPdJOf-123" value="PLANT_MIN_TEMP" style="shape=partialRectangle;connectable=0;fillColor=none;top=0;left=0;bottom=0;right=0;align=left;spacingLeft=6;overflow=hidden;whiteSpace=wrap;html=1;" parent="_x3-6fZufxSY2HoPdJOf-121" vertex="1">
          <mxGeometry x="30" width="190" height="30" as="geometry">
            <mxRectangle width="190" height="30" as="alternateBounds" />
          </mxGeometry>
        </mxCell>
        <mxCell id="_x3-6fZufxSY2HoPdJOf-160" value="FISH" style="shape=table;startSize=30;container=1;collapsible=1;childLayout=tableLayout;fixedRows=1;rowLines=0;fontStyle=1;align=center;resizeLast=1;html=1;strokeColor=#000000;verticalAlign=middle;strokeWidth=1;swimlaneLine=1;rounded=0;fillColor=#fff2cc;" parent="ZRCCH3VUaIyYWiTP1tGq-1" vertex="1">
          <mxGeometry x="710" width="200" height="180" as="geometry">
            <mxRectangle x="-440" y="410" width="80" height="30" as="alternateBounds" />
          </mxGeometry>
        </mxCell>
        <mxCell id="_x3-6fZufxSY2HoPdJOf-247" value="" style="shape=tableRow;horizontal=0;startSize=0;swimlaneHead=0;swimlaneBody=0;fillColor=none;collapsible=0;dropTarget=0;points=[[0,0.5],[1,0.5]];portConstraint=eastwest;top=0;left=0;right=0;bottom=0;strokeColor=default;" parent="_x3-6fZufxSY2HoPdJOf-160" vertex="1">
          <mxGeometry y="30" width="200" height="30" as="geometry" />
        </mxCell>
        <mxCell id="_x3-6fZufxSY2HoPdJOf-248" value="PK" style="shape=partialRectangle;connectable=0;fillColor=none;top=0;left=0;bottom=0;right=0;editable=1;overflow=hidden;whiteSpace=wrap;html=1;" parent="_x3-6fZufxSY2HoPdJOf-247" vertex="1">
          <mxGeometry width="30" height="30" as="geometry">
            <mxRectangle width="30" height="30" as="alternateBounds" />
          </mxGeometry>
        </mxCell>
        <mxCell id="_x3-6fZufxSY2HoPdJOf-249" value="FISH_CODE" style="shape=partialRectangle;connectable=0;fillColor=none;top=0;left=0;bottom=0;right=0;align=left;spacingLeft=6;overflow=hidden;whiteSpace=wrap;html=1;" parent="_x3-6fZufxSY2HoPdJOf-247" vertex="1">
          <mxGeometry x="30" width="170" height="30" as="geometry">
            <mxRectangle width="170" height="30" as="alternateBounds" />
          </mxGeometry>
        </mxCell>
        <mxCell id="_x3-6fZufxSY2HoPdJOf-356" value="" style="shape=tableRow;horizontal=0;startSize=0;swimlaneHead=0;swimlaneBody=0;fillColor=none;collapsible=0;dropTarget=0;points=[[0,0.5],[1,0.5]];portConstraint=eastwest;top=0;left=0;right=0;bottom=0;strokeColor=default;" parent="_x3-6fZufxSY2HoPdJOf-160" vertex="1">
          <mxGeometry y="60" width="200" height="30" as="geometry" />
        </mxCell>
        <mxCell id="_x3-6fZufxSY2HoPdJOf-357" value="" style="shape=partialRectangle;connectable=0;fillColor=none;top=0;left=0;bottom=0;right=0;editable=1;overflow=hidden;whiteSpace=wrap;html=1;" parent="_x3-6fZufxSY2HoPdJOf-356" vertex="1">
          <mxGeometry width="30" height="30" as="geometry">
            <mxRectangle width="30" height="30" as="alternateBounds" />
          </mxGeometry>
        </mxCell>
        <mxCell id="_x3-6fZufxSY2HoPdJOf-358" value="FISH_NAME" style="shape=partialRectangle;connectable=0;fillColor=none;top=0;left=0;bottom=0;right=0;align=left;spacingLeft=6;overflow=hidden;whiteSpace=wrap;html=1;" parent="_x3-6fZufxSY2HoPdJOf-356" vertex="1">
          <mxGeometry x="30" width="170" height="30" as="geometry">
            <mxRectangle width="170" height="30" as="alternateBounds" />
          </mxGeometry>
        </mxCell>
        <mxCell id="_x3-6fZufxSY2HoPdJOf-167" value="" style="shape=tableRow;horizontal=0;startSize=0;swimlaneHead=0;swimlaneBody=0;fillColor=none;collapsible=0;dropTarget=0;points=[[0,0.5],[1,0.5]];portConstraint=eastwest;top=0;left=0;right=0;bottom=0;" parent="_x3-6fZufxSY2HoPdJOf-160" vertex="1">
          <mxGeometry y="90" width="200" height="30" as="geometry" />
        </mxCell>
        <mxCell id="_x3-6fZufxSY2HoPdJOf-168" value="" style="shape=partialRectangle;connectable=0;fillColor=none;top=0;left=0;bottom=0;right=0;editable=1;overflow=hidden;whiteSpace=wrap;html=1;" parent="_x3-6fZufxSY2HoPdJOf-167" vertex="1">
          <mxGeometry width="30" height="30" as="geometry">
            <mxRectangle width="30" height="30" as="alternateBounds" />
          </mxGeometry>
        </mxCell>
        <mxCell id="_x3-6fZufxSY2HoPdJOf-169" value="FISH_INFO" style="shape=partialRectangle;connectable=0;fillColor=none;top=0;left=0;bottom=0;right=0;align=left;spacingLeft=6;overflow=hidden;whiteSpace=wrap;html=1;" parent="_x3-6fZufxSY2HoPdJOf-167" vertex="1">
          <mxGeometry x="30" width="170" height="30" as="geometry">
            <mxRectangle width="170" height="30" as="alternateBounds" />
          </mxGeometry>
        </mxCell>
        <mxCell id="_x3-6fZufxSY2HoPdJOf-170" value="" style="shape=tableRow;horizontal=0;startSize=0;swimlaneHead=0;swimlaneBody=0;fillColor=none;collapsible=0;dropTarget=0;points=[[0,0.5],[1,0.5]];portConstraint=eastwest;top=0;left=0;right=0;bottom=0;" parent="_x3-6fZufxSY2HoPdJOf-160" vertex="1">
          <mxGeometry y="120" width="200" height="30" as="geometry" />
        </mxCell>
        <mxCell id="_x3-6fZufxSY2HoPdJOf-171" value="" style="shape=partialRectangle;connectable=0;fillColor=none;top=0;left=0;bottom=0;right=0;editable=1;overflow=hidden;whiteSpace=wrap;html=1;" parent="_x3-6fZufxSY2HoPdJOf-170" vertex="1">
          <mxGeometry width="30" height="30" as="geometry">
            <mxRectangle width="30" height="30" as="alternateBounds" />
          </mxGeometry>
        </mxCell>
        <mxCell id="_x3-6fZufxSY2HoPdJOf-172" value="FISH_MAX_TEMP" style="shape=partialRectangle;connectable=0;fillColor=none;top=0;left=0;bottom=0;right=0;align=left;spacingLeft=6;overflow=hidden;whiteSpace=wrap;html=1;" parent="_x3-6fZufxSY2HoPdJOf-170" vertex="1">
          <mxGeometry x="30" width="170" height="30" as="geometry">
            <mxRectangle width="170" height="30" as="alternateBounds" />
          </mxGeometry>
        </mxCell>
        <mxCell id="_x3-6fZufxSY2HoPdJOf-173" value="" style="shape=tableRow;horizontal=0;startSize=0;swimlaneHead=0;swimlaneBody=0;fillColor=none;collapsible=0;dropTarget=0;points=[[0,0.5],[1,0.5]];portConstraint=eastwest;top=0;left=0;right=0;bottom=0;" parent="_x3-6fZufxSY2HoPdJOf-160" vertex="1">
          <mxGeometry y="150" width="200" height="30" as="geometry" />
        </mxCell>
        <mxCell id="_x3-6fZufxSY2HoPdJOf-174" value="" style="shape=partialRectangle;connectable=0;fillColor=none;top=0;left=0;bottom=0;right=0;editable=1;overflow=hidden;whiteSpace=wrap;html=1;" parent="_x3-6fZufxSY2HoPdJOf-173" vertex="1">
          <mxGeometry width="30" height="30" as="geometry">
            <mxRectangle width="30" height="30" as="alternateBounds" />
          </mxGeometry>
        </mxCell>
        <mxCell id="_x3-6fZufxSY2HoPdJOf-175" value="FISH_MIN_TEMP" style="shape=partialRectangle;connectable=0;fillColor=none;top=0;left=0;bottom=0;right=0;align=left;spacingLeft=6;overflow=hidden;whiteSpace=wrap;html=1;" parent="_x3-6fZufxSY2HoPdJOf-173" vertex="1">
          <mxGeometry x="30" width="170" height="30" as="geometry">
            <mxRectangle width="170" height="30" as="alternateBounds" />
          </mxGeometry>
        </mxCell>
        <mxCell id="_x3-6fZufxSY2HoPdJOf-200" value="SENSOR" style="shape=table;startSize=30;container=1;collapsible=1;childLayout=tableLayout;fixedRows=1;rowLines=0;fontStyle=1;align=center;resizeLast=1;html=1;strokeColor=#000000;verticalAlign=middle;strokeWidth=1;swimlaneLine=1;rounded=0;fillColor=#fff2cc;" parent="ZRCCH3VUaIyYWiTP1tGq-1" vertex="1">
          <mxGeometry x="640" y="410" width="200" height="120" as="geometry">
            <mxRectangle x="-440" y="410" width="80" height="30" as="alternateBounds" />
          </mxGeometry>
        </mxCell>
        <mxCell id="_x3-6fZufxSY2HoPdJOf-204" value="" style="shape=tableRow;horizontal=0;startSize=0;swimlaneHead=0;swimlaneBody=0;fillColor=none;collapsible=0;dropTarget=0;points=[[0,0.5],[1,0.5]];portConstraint=eastwest;top=0;left=0;right=0;bottom=0;strokeColor=default;" parent="_x3-6fZufxSY2HoPdJOf-200" vertex="1">
          <mxGeometry y="30" width="200" height="30" as="geometry" />
        </mxCell>
        <mxCell id="_x3-6fZufxSY2HoPdJOf-205" value="PK" style="shape=partialRectangle;connectable=0;fillColor=none;top=0;left=0;bottom=0;right=0;editable=1;overflow=hidden;whiteSpace=wrap;html=1;" parent="_x3-6fZufxSY2HoPdJOf-204" vertex="1">
          <mxGeometry width="30" height="30" as="geometry">
            <mxRectangle width="30" height="30" as="alternateBounds" />
          </mxGeometry>
        </mxCell>
        <mxCell id="_x3-6fZufxSY2HoPdJOf-206" value="SENSOR_CODE" style="shape=partialRectangle;connectable=0;fillColor=none;top=0;left=0;bottom=0;right=0;align=left;spacingLeft=6;overflow=hidden;whiteSpace=wrap;html=1;" parent="_x3-6fZufxSY2HoPdJOf-204" vertex="1">
          <mxGeometry x="30" width="170" height="30" as="geometry">
            <mxRectangle width="170" height="30" as="alternateBounds" />
          </mxGeometry>
        </mxCell>
        <mxCell id="_x3-6fZufxSY2HoPdJOf-238" value="" style="shape=tableRow;horizontal=0;startSize=0;swimlaneHead=0;swimlaneBody=0;fillColor=none;collapsible=0;dropTarget=0;points=[[0,0.5],[1,0.5]];portConstraint=eastwest;top=0;left=0;right=0;bottom=0;strokeColor=default;" parent="_x3-6fZufxSY2HoPdJOf-200" vertex="1">
          <mxGeometry y="60" width="200" height="30" as="geometry" />
        </mxCell>
        <mxCell id="_x3-6fZufxSY2HoPdJOf-239" value="" style="shape=partialRectangle;connectable=0;fillColor=none;top=0;left=0;bottom=0;right=0;editable=1;overflow=hidden;whiteSpace=wrap;html=1;" parent="_x3-6fZufxSY2HoPdJOf-238" vertex="1">
          <mxGeometry width="30" height="30" as="geometry">
            <mxRectangle width="30" height="30" as="alternateBounds" />
          </mxGeometry>
        </mxCell>
        <mxCell id="_x3-6fZufxSY2HoPdJOf-240" value="SENSOR_NAME" style="shape=partialRectangle;connectable=0;fillColor=none;top=0;left=0;bottom=0;right=0;align=left;spacingLeft=6;overflow=hidden;whiteSpace=wrap;html=1;" parent="_x3-6fZufxSY2HoPdJOf-238" vertex="1">
          <mxGeometry x="30" width="170" height="30" as="geometry">
            <mxRectangle width="170" height="30" as="alternateBounds" />
          </mxGeometry>
        </mxCell>
        <mxCell id="_x3-6fZufxSY2HoPdJOf-207" value="" style="shape=tableRow;horizontal=0;startSize=0;swimlaneHead=0;swimlaneBody=0;fillColor=none;collapsible=0;dropTarget=0;points=[[0,0.5],[1,0.5]];portConstraint=eastwest;top=0;left=0;right=0;bottom=0;" parent="_x3-6fZufxSY2HoPdJOf-200" vertex="1">
          <mxGeometry y="90" width="200" height="30" as="geometry" />
        </mxCell>
        <mxCell id="_x3-6fZufxSY2HoPdJOf-208" value="" style="shape=partialRectangle;connectable=0;fillColor=none;top=0;left=0;bottom=0;right=0;editable=1;overflow=hidden;whiteSpace=wrap;html=1;" parent="_x3-6fZufxSY2HoPdJOf-207" vertex="1">
          <mxGeometry width="30" height="30" as="geometry">
            <mxRectangle width="30" height="30" as="alternateBounds" />
          </mxGeometry>
        </mxCell>
        <mxCell id="_x3-6fZufxSY2HoPdJOf-209" value="SENSOR_RESULT_VALUE" style="shape=partialRectangle;connectable=0;fillColor=none;top=0;left=0;bottom=0;right=0;align=left;spacingLeft=6;overflow=hidden;whiteSpace=wrap;html=1;" parent="_x3-6fZufxSY2HoPdJOf-207" vertex="1">
          <mxGeometry x="30" width="170" height="30" as="geometry">
            <mxRectangle width="170" height="30" as="alternateBounds" />
          </mxGeometry>
        </mxCell>
        <mxCell id="_x3-6fZufxSY2HoPdJOf-303" value="PRODUCT" style="shape=table;startSize=30;container=1;collapsible=1;childLayout=tableLayout;fixedRows=1;rowLines=0;fontStyle=1;align=center;resizeLast=1;html=1;strokeColor=#000000;verticalAlign=middle;strokeWidth=1;swimlaneLine=1;rounded=0;fillColor=#fff2cc;swimlaneFillColor=default;" parent="ZRCCH3VUaIyYWiTP1tGq-1" vertex="1">
          <mxGeometry x="370" y="110" width="180" height="180" as="geometry">
            <mxRectangle x="-440" y="410" width="80" height="30" as="alternateBounds" />
          </mxGeometry>
        </mxCell>
        <mxCell id="_x3-6fZufxSY2HoPdJOf-304" value="" style="shape=tableRow;horizontal=0;startSize=0;swimlaneHead=0;swimlaneBody=0;fillColor=none;collapsible=0;dropTarget=0;points=[[0,0.5],[1,0.5]];portConstraint=eastwest;top=0;left=0;right=0;bottom=0;strokeColor=default;" parent="_x3-6fZufxSY2HoPdJOf-303" vertex="1">
          <mxGeometry y="30" width="180" height="30" as="geometry" />
        </mxCell>
        <mxCell id="_x3-6fZufxSY2HoPdJOf-305" value="PK" style="shape=partialRectangle;connectable=0;fillColor=none;top=0;left=0;bottom=0;right=0;editable=1;overflow=hidden;whiteSpace=wrap;html=1;" parent="_x3-6fZufxSY2HoPdJOf-304" vertex="1">
          <mxGeometry width="30" height="30" as="geometry">
            <mxRectangle width="30" height="30" as="alternateBounds" />
          </mxGeometry>
        </mxCell>
        <mxCell id="_x3-6fZufxSY2HoPdJOf-306" value="PRODUCT_CODE" style="shape=partialRectangle;connectable=0;fillColor=none;top=0;left=0;bottom=0;right=0;align=left;spacingLeft=6;overflow=hidden;whiteSpace=wrap;html=1;" parent="_x3-6fZufxSY2HoPdJOf-304" vertex="1">
          <mxGeometry x="30" width="150" height="30" as="geometry">
            <mxRectangle width="150" height="30" as="alternateBounds" />
          </mxGeometry>
        </mxCell>
        <mxCell id="_x3-6fZufxSY2HoPdJOf-322" value="" style="shape=tableRow;horizontal=0;startSize=0;swimlaneHead=0;swimlaneBody=0;fillColor=none;collapsible=0;dropTarget=0;points=[[0,0.5],[1,0.5]];portConstraint=eastwest;top=0;left=0;right=0;bottom=0;strokeColor=default;" parent="_x3-6fZufxSY2HoPdJOf-303" vertex="1">
          <mxGeometry y="60" width="180" height="30" as="geometry" />
        </mxCell>
        <mxCell id="_x3-6fZufxSY2HoPdJOf-323" value="FK" style="shape=partialRectangle;connectable=0;fillColor=none;top=0;left=0;bottom=0;right=0;editable=1;overflow=hidden;whiteSpace=wrap;html=1;" parent="_x3-6fZufxSY2HoPdJOf-322" vertex="1">
          <mxGeometry width="30" height="30" as="geometry">
            <mxRectangle width="30" height="30" as="alternateBounds" />
          </mxGeometry>
        </mxCell>
        <mxCell id="_x3-6fZufxSY2HoPdJOf-324" value="USER_ID" style="shape=partialRectangle;connectable=0;fillColor=none;top=0;left=0;bottom=0;right=0;align=left;spacingLeft=6;overflow=hidden;whiteSpace=wrap;html=1;" parent="_x3-6fZufxSY2HoPdJOf-322" vertex="1">
          <mxGeometry x="30" width="150" height="30" as="geometry">
            <mxRectangle width="150" height="30" as="alternateBounds" />
          </mxGeometry>
        </mxCell>
        <mxCell id="_x3-6fZufxSY2HoPdJOf-307" value="" style="shape=tableRow;horizontal=0;startSize=0;swimlaneHead=0;swimlaneBody=0;fillColor=none;collapsible=0;dropTarget=0;points=[[0,0.5],[1,0.5]];portConstraint=eastwest;top=0;left=0;right=0;bottom=0;strokeColor=default;" parent="_x3-6fZufxSY2HoPdJOf-303" vertex="1">
          <mxGeometry y="90" width="180" height="30" as="geometry" />
        </mxCell>
        <mxCell id="_x3-6fZufxSY2HoPdJOf-308" value="FK" style="shape=partialRectangle;connectable=0;fillColor=none;top=0;left=0;bottom=0;right=0;editable=1;overflow=hidden;whiteSpace=wrap;html=1;" parent="_x3-6fZufxSY2HoPdJOf-307" vertex="1">
          <mxGeometry width="30" height="30" as="geometry">
            <mxRectangle width="30" height="30" as="alternateBounds" />
          </mxGeometry>
        </mxCell>
        <mxCell id="_x3-6fZufxSY2HoPdJOf-309" value="FISH_CODE" style="shape=partialRectangle;connectable=0;fillColor=none;top=0;left=0;bottom=0;right=0;align=left;spacingLeft=6;overflow=hidden;whiteSpace=wrap;html=1;" parent="_x3-6fZufxSY2HoPdJOf-307" vertex="1">
          <mxGeometry x="30" width="150" height="30" as="geometry">
            <mxRectangle width="150" height="30" as="alternateBounds" />
          </mxGeometry>
        </mxCell>
        <mxCell id="_x3-6fZufxSY2HoPdJOf-325" value="" style="shape=tableRow;horizontal=0;startSize=0;swimlaneHead=0;swimlaneBody=0;fillColor=none;collapsible=0;dropTarget=0;points=[[0,0.5],[1,0.5]];portConstraint=eastwest;top=0;left=0;right=0;bottom=0;strokeColor=default;" parent="_x3-6fZufxSY2HoPdJOf-303" vertex="1">
          <mxGeometry y="120" width="180" height="30" as="geometry" />
        </mxCell>
        <mxCell id="_x3-6fZufxSY2HoPdJOf-326" value="FK" style="shape=partialRectangle;connectable=0;fillColor=none;top=0;left=0;bottom=0;right=0;editable=1;overflow=hidden;whiteSpace=wrap;html=1;" parent="_x3-6fZufxSY2HoPdJOf-325" vertex="1">
          <mxGeometry width="30" height="30" as="geometry">
            <mxRectangle width="30" height="30" as="alternateBounds" />
          </mxGeometry>
        </mxCell>
        <mxCell id="_x3-6fZufxSY2HoPdJOf-327" value="PLANT_CODE" style="shape=partialRectangle;connectable=0;fillColor=none;top=0;left=0;bottom=0;right=0;align=left;spacingLeft=6;overflow=hidden;whiteSpace=wrap;html=1;" parent="_x3-6fZufxSY2HoPdJOf-325" vertex="1">
          <mxGeometry x="30" width="150" height="30" as="geometry">
            <mxRectangle width="150" height="30" as="alternateBounds" />
          </mxGeometry>
        </mxCell>
        <mxCell id="_x3-6fZufxSY2HoPdJOf-310" value="" style="shape=tableRow;horizontal=0;startSize=0;swimlaneHead=0;swimlaneBody=0;fillColor=none;collapsible=0;dropTarget=0;points=[[0,0.5],[1,0.5]];portConstraint=eastwest;top=0;left=0;right=0;bottom=0;" parent="_x3-6fZufxSY2HoPdJOf-303" vertex="1">
          <mxGeometry y="150" width="180" height="30" as="geometry" />
        </mxCell>
        <mxCell id="_x3-6fZufxSY2HoPdJOf-311" value="FK" style="shape=partialRectangle;connectable=0;fillColor=none;top=0;left=0;bottom=0;right=0;editable=1;overflow=hidden;whiteSpace=wrap;html=1;" parent="_x3-6fZufxSY2HoPdJOf-310" vertex="1">
          <mxGeometry width="30" height="30" as="geometry">
            <mxRectangle width="30" height="30" as="alternateBounds" />
          </mxGeometry>
        </mxCell>
        <mxCell id="_x3-6fZufxSY2HoPdJOf-312" value="SENSOR_CODE" style="shape=partialRectangle;connectable=0;fillColor=none;top=0;left=0;bottom=0;right=0;align=left;spacingLeft=6;overflow=hidden;whiteSpace=wrap;html=1;" parent="_x3-6fZufxSY2HoPdJOf-310" vertex="1">
          <mxGeometry x="30" width="150" height="30" as="geometry">
            <mxRectangle width="150" height="30" as="alternateBounds" />
          </mxGeometry>
        </mxCell>
        <mxCell id="_x3-6fZufxSY2HoPdJOf-369" value="" style="edgeStyle=entityRelationEdgeStyle;fontSize=12;html=1;endArrow=ERone;rounded=0;entryX=0.994;entryY=0.033;entryDx=0;entryDy=0;entryPerimeter=0;exitX=0;exitY=0.5;exitDx=0;exitDy=0;startArrow=ERone;startFill=0;endFill=0;" parent="ZRCCH3VUaIyYWiTP1tGq-1" source="_x3-6fZufxSY2HoPdJOf-307" target="_x3-6fZufxSY2HoPdJOf-102" edge="1">
          <mxGeometry width="100" height="100" relative="1" as="geometry">
            <mxPoint x="210" y="340" as="sourcePoint" />
            <mxPoint x="310" y="240" as="targetPoint" />
          </mxGeometry>
        </mxCell>
        <mxCell id="_x3-6fZufxSY2HoPdJOf-370" value="" style="edgeStyle=entityRelationEdgeStyle;fontSize=12;html=1;endArrow=ERoneToMany;rounded=0;entryX=1;entryY=0.5;entryDx=0;entryDy=0;startArrow=ERone;startFill=0;exitX=0;exitY=0.5;exitDx=0;exitDy=0;" parent="ZRCCH3VUaIyYWiTP1tGq-1" source="_x3-6fZufxSY2HoPdJOf-310" target="_x3-6fZufxSY2HoPdJOf-115" edge="1">
          <mxGeometry width="100" height="100" relative="1" as="geometry">
            <mxPoint x="400" y="626.25" as="sourcePoint" />
            <mxPoint x="478.02" y="313.74" as="targetPoint" />
            <Array as="points">
              <mxPoint x="388.02" y="403.24" />
              <mxPoint x="564.02" y="523.24" />
              <mxPoint x="558.02" y="433.24" />
              <mxPoint x="548.02" y="453.24" />
            </Array>
          </mxGeometry>
        </mxCell>
        <mxCell id="_x3-6fZufxSY2HoPdJOf-371" value="" style="edgeStyle=entityRelationEdgeStyle;fontSize=12;html=1;endArrow=ERoneToMany;rounded=0;entryX=0;entryY=0.5;entryDx=0;entryDy=0;startArrow=ERone;startFill=0;exitX=1;exitY=0.5;exitDx=0;exitDy=0;" parent="ZRCCH3VUaIyYWiTP1tGq-1" source="_x3-6fZufxSY2HoPdJOf-307" target="_x3-6fZufxSY2HoPdJOf-167" edge="1">
          <mxGeometry width="100" height="100" relative="1" as="geometry">
            <mxPoint x="670" y="-100" as="sourcePoint" />
            <mxPoint x="590" y="140" as="targetPoint" />
            <Array as="points">
              <mxPoint x="688.02" y="28.24000000000001" />
              <mxPoint x="864.02" y="148.24" />
              <mxPoint x="858.02" y="58.24000000000001" />
              <mxPoint x="848.02" y="78.24000000000001" />
            </Array>
          </mxGeometry>
        </mxCell>
        <mxCell id="_x3-6fZufxSY2HoPdJOf-372" value="" style="edgeStyle=entityRelationEdgeStyle;fontSize=12;html=1;endArrow=ERoneToMany;rounded=0;entryX=0;entryY=0.5;entryDx=0;entryDy=0;startArrow=ERone;startFill=0;exitX=1;exitY=0.5;exitDx=0;exitDy=0;" parent="ZRCCH3VUaIyYWiTP1tGq-1" source="_x3-6fZufxSY2HoPdJOf-310" target="_x3-6fZufxSY2HoPdJOf-238" edge="1">
          <mxGeometry width="100" height="100" relative="1" as="geometry">
            <mxPoint x="1040" y="170" as="sourcePoint" />
            <mxPoint x="960" y="410" as="targetPoint" />
            <Array as="points">
              <mxPoint x="1058.02" y="298.24" />
              <mxPoint x="1234.02" y="418.24" />
              <mxPoint x="1228.02" y="328.24" />
              <mxPoint x="1218.02" y="348.24" />
            </Array>
          </mxGeometry>
        </mxCell>
        <mxCell id="ZRCCH3VUaIyYWiTP1tGq-2" value="" style="group" parent="1" vertex="1" connectable="0">
          <mxGeometry x="-1213" y="510" width="800" height="720" as="geometry" />
        </mxCell>
        <mxCell id="fHkBKyJmSVLR9acTuAfx-21" value="" style="group" parent="ZRCCH3VUaIyYWiTP1tGq-2" vertex="1" connectable="0">
          <mxGeometry y="20" width="230" height="410" as="geometry" />
        </mxCell>
        <mxCell id="fHkBKyJmSVLR9acTuAfx-1" value="사용자" style="rounded=0;whiteSpace=wrap;html=1;fillColor=#fff2cc;strokeColor=#d6b656;" parent="fHkBKyJmSVLR9acTuAfx-21" vertex="1">
          <mxGeometry x="130" y="180" width="100" height="50" as="geometry" />
        </mxCell>
        <mxCell id="fHkBKyJmSVLR9acTuAfx-7" value="사용자 ID" style="ellipse;whiteSpace=wrap;html=1;flipV=1;flipH=1;fillColor=#f8cecc;strokeColor=#b85450;fontStyle=4" parent="fHkBKyJmSVLR9acTuAfx-21" vertex="1">
          <mxGeometry y="60" width="70" height="50" as="geometry" />
        </mxCell>
        <mxCell id="fHkBKyJmSVLR9acTuAfx-8" value="이름" style="ellipse;whiteSpace=wrap;html=1;flipV=1;flipH=1;fillColor=#f8cecc;strokeColor=#b85450;" parent="fHkBKyJmSVLR9acTuAfx-21" vertex="1">
          <mxGeometry y="120" width="70" height="50" as="geometry" />
        </mxCell>
        <mxCell id="fHkBKyJmSVLR9acTuAfx-10" value="이메일" style="ellipse;whiteSpace=wrap;html=1;flipV=1;flipH=1;fillColor=#f8cecc;strokeColor=#b85450;" parent="fHkBKyJmSVLR9acTuAfx-21" vertex="1">
          <mxGeometry y="180" width="70" height="50" as="geometry" />
        </mxCell>
        <mxCell id="fHkBKyJmSVLR9acTuAfx-11" value="비밀번호" style="ellipse;whiteSpace=wrap;html=1;flipV=1;flipH=1;fillColor=#f8cecc;strokeColor=#b85450;" parent="fHkBKyJmSVLR9acTuAfx-21" vertex="1">
          <mxGeometry y="240" width="70" height="50" as="geometry" />
        </mxCell>
        <mxCell id="fHkBKyJmSVLR9acTuAfx-12" value="휴대폰번호" style="ellipse;whiteSpace=wrap;html=1;flipV=1;flipH=1;fillColor=#f8cecc;strokeColor=#b85450;" parent="fHkBKyJmSVLR9acTuAfx-21" vertex="1">
          <mxGeometry y="300" width="70" height="50" as="geometry" />
        </mxCell>
        <mxCell id="fHkBKyJmSVLR9acTuAfx-13" value="가입일" style="ellipse;whiteSpace=wrap;html=1;flipV=1;flipH=1;fillColor=#f8cecc;strokeColor=#b85450;" parent="fHkBKyJmSVLR9acTuAfx-21" vertex="1">
          <mxGeometry y="360" width="70" height="50" as="geometry" />
        </mxCell>
        <mxCell id="fHkBKyJmSVLR9acTuAfx-15" value="" style="endArrow=none;html=1;rounded=0;exitX=1;exitY=0.5;exitDx=0;exitDy=0;entryX=0;entryY=0.5;entryDx=0;entryDy=0;" parent="fHkBKyJmSVLR9acTuAfx-21" source="fHkBKyJmSVLR9acTuAfx-7" target="fHkBKyJmSVLR9acTuAfx-1" edge="1">
          <mxGeometry width="50" height="50" relative="1" as="geometry">
            <mxPoint x="180" y="123" as="sourcePoint" />
            <mxPoint x="290" y="83" as="targetPoint" />
          </mxGeometry>
        </mxCell>
        <mxCell id="fHkBKyJmSVLR9acTuAfx-16" value="" style="endArrow=none;html=1;rounded=0;exitX=1;exitY=0.5;exitDx=0;exitDy=0;entryX=0;entryY=0.5;entryDx=0;entryDy=0;" parent="fHkBKyJmSVLR9acTuAfx-21" source="fHkBKyJmSVLR9acTuAfx-8" target="fHkBKyJmSVLR9acTuAfx-1" edge="1">
          <mxGeometry width="50" height="50" relative="1" as="geometry">
            <mxPoint x="230" y="170" as="sourcePoint" />
            <mxPoint x="340" y="130" as="targetPoint" />
          </mxGeometry>
        </mxCell>
        <mxCell id="fHkBKyJmSVLR9acTuAfx-17" value="" style="endArrow=none;html=1;rounded=0;exitX=0;exitY=0.5;exitDx=0;exitDy=0;entryX=1;entryY=0.5;entryDx=0;entryDy=0;" parent="fHkBKyJmSVLR9acTuAfx-21" source="fHkBKyJmSVLR9acTuAfx-1" target="fHkBKyJmSVLR9acTuAfx-10" edge="1">
          <mxGeometry width="50" height="50" relative="1" as="geometry">
            <mxPoint x="245" y="210" as="sourcePoint" />
            <mxPoint x="355" y="170" as="targetPoint" />
          </mxGeometry>
        </mxCell>
        <mxCell id="fHkBKyJmSVLR9acTuAfx-18" value="" style="endArrow=none;html=1;rounded=0;entryX=1;entryY=0.5;entryDx=0;entryDy=0;exitX=0;exitY=0.5;exitDx=0;exitDy=0;" parent="fHkBKyJmSVLR9acTuAfx-21" source="fHkBKyJmSVLR9acTuAfx-1" target="fHkBKyJmSVLR9acTuAfx-11" edge="1">
          <mxGeometry width="50" height="50" relative="1" as="geometry">
            <mxPoint x="262" y="263" as="sourcePoint" />
            <mxPoint x="372" y="223" as="targetPoint" />
          </mxGeometry>
        </mxCell>
        <mxCell id="fHkBKyJmSVLR9acTuAfx-19" value="" style="endArrow=none;html=1;rounded=0;entryX=1;entryY=0.5;entryDx=0;entryDy=0;exitX=0;exitY=0.5;exitDx=0;exitDy=0;" parent="fHkBKyJmSVLR9acTuAfx-21" source="fHkBKyJmSVLR9acTuAfx-1" target="fHkBKyJmSVLR9acTuAfx-13" edge="1">
          <mxGeometry width="50" height="50" relative="1" as="geometry">
            <mxPoint x="150" y="265" as="sourcePoint" />
            <mxPoint x="90" y="385" as="targetPoint" />
          </mxGeometry>
        </mxCell>
        <mxCell id="fHkBKyJmSVLR9acTuAfx-20" value="" style="endArrow=none;html=1;rounded=0;entryX=1;entryY=0.5;entryDx=0;entryDy=0;exitX=0;exitY=0.5;exitDx=0;exitDy=0;" parent="fHkBKyJmSVLR9acTuAfx-21" source="fHkBKyJmSVLR9acTuAfx-1" target="fHkBKyJmSVLR9acTuAfx-12" edge="1">
          <mxGeometry width="50" height="50" relative="1" as="geometry">
            <mxPoint x="160" y="223" as="sourcePoint" />
            <mxPoint x="100" y="403" as="targetPoint" />
          </mxGeometry>
        </mxCell>
        <mxCell id="fHkBKyJmSVLR9acTuAfx-95" value="" style="group" parent="ZRCCH3VUaIyYWiTP1tGq-2" vertex="1" connectable="0">
          <mxGeometry x="540" width="230" height="290" as="geometry" />
        </mxCell>
        <mxCell id="fHkBKyJmSVLR9acTuAfx-23" value="식물" style="rounded=0;whiteSpace=wrap;html=1;fillColor=#fff2cc;strokeColor=#d6b656;" parent="fHkBKyJmSVLR9acTuAfx-95" vertex="1">
          <mxGeometry y="120" width="100" height="50" as="geometry" />
        </mxCell>
        <mxCell id="fHkBKyJmSVLR9acTuAfx-82" style="edgeStyle=orthogonalEdgeStyle;rounded=0;orthogonalLoop=1;jettySize=auto;html=1;exitX=1;exitY=0.5;exitDx=0;exitDy=0;" parent="fHkBKyJmSVLR9acTuAfx-95" source="fHkBKyJmSVLR9acTuAfx-24" edge="1">
          <mxGeometry relative="1" as="geometry">
            <mxPoint x="230" y="85" as="targetPoint" />
          </mxGeometry>
        </mxCell>
        <mxCell id="fHkBKyJmSVLR9acTuAfx-24" value="식물명" style="ellipse;whiteSpace=wrap;html=1;flipV=1;flipH=1;fillColor=#f8cecc;strokeColor=#b85450;" parent="fHkBKyJmSVLR9acTuAfx-95" vertex="1">
          <mxGeometry x="160" y="60" width="70" height="50" as="geometry" />
        </mxCell>
        <mxCell id="fHkBKyJmSVLR9acTuAfx-25" value="식물정보" style="ellipse;whiteSpace=wrap;html=1;flipV=1;flipH=1;fillColor=#f8cecc;strokeColor=#b85450;" parent="fHkBKyJmSVLR9acTuAfx-95" vertex="1">
          <mxGeometry x="160" y="120" width="70" height="50" as="geometry" />
        </mxCell>
        <mxCell id="fHkBKyJmSVLR9acTuAfx-26" value="&lt;u&gt;식물코드&lt;/u&gt;" style="ellipse;whiteSpace=wrap;html=1;flipV=1;flipH=1;fillColor=#f8cecc;strokeColor=#b85450;" parent="fHkBKyJmSVLR9acTuAfx-95" vertex="1">
          <mxGeometry x="160" width="70" height="50" as="geometry" />
        </mxCell>
        <mxCell id="fHkBKyJmSVLR9acTuAfx-27" value="식물&lt;br&gt;최대온도" style="ellipse;whiteSpace=wrap;html=1;flipV=1;flipH=1;fillColor=#f8cecc;strokeColor=#b85450;" parent="fHkBKyJmSVLR9acTuAfx-95" vertex="1">
          <mxGeometry x="160" y="180" width="70" height="50" as="geometry" />
        </mxCell>
        <mxCell id="fHkBKyJmSVLR9acTuAfx-28" value="식물&lt;br&gt;최저온도" style="ellipse;whiteSpace=wrap;html=1;flipV=1;flipH=1;fillColor=#f8cecc;strokeColor=#b85450;" parent="fHkBKyJmSVLR9acTuAfx-95" vertex="1">
          <mxGeometry x="160" y="240" width="70" height="50" as="geometry" />
        </mxCell>
        <mxCell id="fHkBKyJmSVLR9acTuAfx-31" value="" style="endArrow=none;html=1;rounded=0;exitX=0;exitY=0.5;exitDx=0;exitDy=0;entryX=1;entryY=0.5;entryDx=0;entryDy=0;" parent="fHkBKyJmSVLR9acTuAfx-95" source="fHkBKyJmSVLR9acTuAfx-26" target="fHkBKyJmSVLR9acTuAfx-23" edge="1">
          <mxGeometry width="50" height="50" relative="1" as="geometry">
            <mxPoint x="285" y="60" as="sourcePoint" />
            <mxPoint x="520" y="145" as="targetPoint" />
          </mxGeometry>
        </mxCell>
        <mxCell id="fHkBKyJmSVLR9acTuAfx-32" value="" style="endArrow=none;html=1;rounded=0;exitX=0.965;exitY=0.34;exitDx=0;exitDy=0;entryX=1;entryY=0.5;entryDx=0;entryDy=0;exitPerimeter=0;" parent="fHkBKyJmSVLR9acTuAfx-95" source="fHkBKyJmSVLR9acTuAfx-24" target="fHkBKyJmSVLR9acTuAfx-23" edge="1">
          <mxGeometry width="50" height="50" relative="1" as="geometry">
            <mxPoint x="340" y="123" as="sourcePoint" />
            <mxPoint x="520" y="145" as="targetPoint" />
          </mxGeometry>
        </mxCell>
        <mxCell id="fHkBKyJmSVLR9acTuAfx-33" value="" style="endArrow=none;html=1;rounded=0;exitX=0;exitY=0.5;exitDx=0;exitDy=0;entryX=1;entryY=0.5;entryDx=0;entryDy=0;" parent="fHkBKyJmSVLR9acTuAfx-95" source="fHkBKyJmSVLR9acTuAfx-25" target="fHkBKyJmSVLR9acTuAfx-23" edge="1">
          <mxGeometry width="50" height="50" relative="1" as="geometry">
            <mxPoint x="390" y="170" as="sourcePoint" />
            <mxPoint x="520" y="145" as="targetPoint" />
          </mxGeometry>
        </mxCell>
        <mxCell id="fHkBKyJmSVLR9acTuAfx-34" value="" style="endArrow=none;html=1;rounded=0;exitX=1;exitY=0.5;exitDx=0;exitDy=0;entryX=0.994;entryY=0.7;entryDx=0;entryDy=0;entryPerimeter=0;" parent="fHkBKyJmSVLR9acTuAfx-95" source="fHkBKyJmSVLR9acTuAfx-23" target="fHkBKyJmSVLR9acTuAfx-27" edge="1">
          <mxGeometry width="50" height="50" relative="1" as="geometry">
            <mxPoint x="520" y="145" as="sourcePoint" />
            <mxPoint x="515" y="170" as="targetPoint" />
          </mxGeometry>
        </mxCell>
        <mxCell id="fHkBKyJmSVLR9acTuAfx-35" value="" style="endArrow=none;html=1;rounded=0;entryX=0;entryY=0.5;entryDx=0;entryDy=0;exitX=1;exitY=0.5;exitDx=0;exitDy=0;" parent="fHkBKyJmSVLR9acTuAfx-95" source="fHkBKyJmSVLR9acTuAfx-23" target="fHkBKyJmSVLR9acTuAfx-28" edge="1">
          <mxGeometry width="50" height="50" relative="1" as="geometry">
            <mxPoint x="520" y="145" as="sourcePoint" />
            <mxPoint x="532" y="223" as="targetPoint" />
          </mxGeometry>
        </mxCell>
        <mxCell id="fHkBKyJmSVLR9acTuAfx-96" value="" style="group" parent="ZRCCH3VUaIyYWiTP1tGq-2" vertex="1" connectable="0">
          <mxGeometry x="570" y="430" width="230" height="290" as="geometry" />
        </mxCell>
        <mxCell id="fHkBKyJmSVLR9acTuAfx-83" value="물고기" style="rounded=0;whiteSpace=wrap;html=1;fillColor=#fff2cc;strokeColor=#d6b656;" parent="fHkBKyJmSVLR9acTuAfx-96" vertex="1">
          <mxGeometry y="120" width="100" height="50" as="geometry" />
        </mxCell>
        <mxCell id="fHkBKyJmSVLR9acTuAfx-84" style="edgeStyle=orthogonalEdgeStyle;rounded=0;orthogonalLoop=1;jettySize=auto;html=1;exitX=1;exitY=0.5;exitDx=0;exitDy=0;" parent="fHkBKyJmSVLR9acTuAfx-96" source="fHkBKyJmSVLR9acTuAfx-85" edge="1">
          <mxGeometry relative="1" as="geometry">
            <mxPoint x="230" y="85" as="targetPoint" />
          </mxGeometry>
        </mxCell>
        <mxCell id="fHkBKyJmSVLR9acTuAfx-85" value="물고기명" style="ellipse;whiteSpace=wrap;html=1;flipV=1;flipH=1;fillColor=#f8cecc;strokeColor=#b85450;" parent="fHkBKyJmSVLR9acTuAfx-96" vertex="1">
          <mxGeometry x="160" y="60" width="70" height="50" as="geometry" />
        </mxCell>
        <mxCell id="fHkBKyJmSVLR9acTuAfx-86" value="물고기정보" style="ellipse;whiteSpace=wrap;html=1;flipV=1;flipH=1;fillColor=#f8cecc;strokeColor=#b85450;" parent="fHkBKyJmSVLR9acTuAfx-96" vertex="1">
          <mxGeometry x="160" y="120" width="70" height="50" as="geometry" />
        </mxCell>
        <mxCell id="fHkBKyJmSVLR9acTuAfx-87" value="&lt;u&gt;물고기코드&lt;/u&gt;" style="ellipse;whiteSpace=wrap;html=1;flipV=1;flipH=1;fillColor=#f8cecc;strokeColor=#b85450;" parent="fHkBKyJmSVLR9acTuAfx-96" vertex="1">
          <mxGeometry x="160" width="70" height="50" as="geometry" />
        </mxCell>
        <mxCell id="fHkBKyJmSVLR9acTuAfx-88" value="물고기&lt;br&gt;최대온도" style="ellipse;whiteSpace=wrap;html=1;flipV=1;flipH=1;fillColor=#f8cecc;strokeColor=#b85450;" parent="fHkBKyJmSVLR9acTuAfx-96" vertex="1">
          <mxGeometry x="160" y="180" width="70" height="50" as="geometry" />
        </mxCell>
        <mxCell id="fHkBKyJmSVLR9acTuAfx-89" value="물고기&lt;br&gt;최저온도" style="ellipse;whiteSpace=wrap;html=1;flipV=1;flipH=1;fillColor=#f8cecc;strokeColor=#b85450;" parent="fHkBKyJmSVLR9acTuAfx-96" vertex="1">
          <mxGeometry x="160" y="240" width="70" height="50" as="geometry" />
        </mxCell>
        <mxCell id="fHkBKyJmSVLR9acTuAfx-90" value="" style="endArrow=none;html=1;rounded=0;exitX=0;exitY=0.5;exitDx=0;exitDy=0;entryX=1;entryY=0.5;entryDx=0;entryDy=0;" parent="fHkBKyJmSVLR9acTuAfx-96" source="fHkBKyJmSVLR9acTuAfx-87" target="fHkBKyJmSVLR9acTuAfx-83" edge="1">
          <mxGeometry width="50" height="50" relative="1" as="geometry">
            <mxPoint x="285" y="60" as="sourcePoint" />
            <mxPoint x="520" y="145" as="targetPoint" />
          </mxGeometry>
        </mxCell>
        <mxCell id="fHkBKyJmSVLR9acTuAfx-91" value="" style="endArrow=none;html=1;rounded=0;exitX=0.965;exitY=0.34;exitDx=0;exitDy=0;entryX=1;entryY=0.5;entryDx=0;entryDy=0;exitPerimeter=0;" parent="fHkBKyJmSVLR9acTuAfx-96" source="fHkBKyJmSVLR9acTuAfx-85" target="fHkBKyJmSVLR9acTuAfx-83" edge="1">
          <mxGeometry width="50" height="50" relative="1" as="geometry">
            <mxPoint x="340" y="123" as="sourcePoint" />
            <mxPoint x="520" y="145" as="targetPoint" />
          </mxGeometry>
        </mxCell>
        <mxCell id="fHkBKyJmSVLR9acTuAfx-92" value="" style="endArrow=none;html=1;rounded=0;exitX=0;exitY=0.5;exitDx=0;exitDy=0;entryX=1;entryY=0.5;entryDx=0;entryDy=0;" parent="fHkBKyJmSVLR9acTuAfx-96" source="fHkBKyJmSVLR9acTuAfx-86" target="fHkBKyJmSVLR9acTuAfx-83" edge="1">
          <mxGeometry width="50" height="50" relative="1" as="geometry">
            <mxPoint x="390" y="170" as="sourcePoint" />
            <mxPoint x="520" y="145" as="targetPoint" />
          </mxGeometry>
        </mxCell>
        <mxCell id="fHkBKyJmSVLR9acTuAfx-93" value="" style="endArrow=none;html=1;rounded=0;exitX=1;exitY=0.5;exitDx=0;exitDy=0;entryX=0.994;entryY=0.7;entryDx=0;entryDy=0;entryPerimeter=0;" parent="fHkBKyJmSVLR9acTuAfx-96" source="fHkBKyJmSVLR9acTuAfx-83" target="fHkBKyJmSVLR9acTuAfx-88" edge="1">
          <mxGeometry width="50" height="50" relative="1" as="geometry">
            <mxPoint x="520" y="145" as="sourcePoint" />
            <mxPoint x="515" y="170" as="targetPoint" />
          </mxGeometry>
        </mxCell>
        <mxCell id="fHkBKyJmSVLR9acTuAfx-94" value="" style="endArrow=none;html=1;rounded=0;entryX=0;entryY=0.5;entryDx=0;entryDy=0;exitX=1;exitY=0.5;exitDx=0;exitDy=0;" parent="fHkBKyJmSVLR9acTuAfx-96" source="fHkBKyJmSVLR9acTuAfx-83" target="fHkBKyJmSVLR9acTuAfx-89" edge="1">
          <mxGeometry width="50" height="50" relative="1" as="geometry">
            <mxPoint x="520" y="145" as="sourcePoint" />
            <mxPoint x="532" y="223" as="targetPoint" />
          </mxGeometry>
        </mxCell>
        <mxCell id="fHkBKyJmSVLR9acTuAfx-110" value="제품" style="rounded=0;whiteSpace=wrap;html=1;fillColor=#fff2cc;strokeColor=#d6b656;" parent="ZRCCH3VUaIyYWiTP1tGq-2" vertex="1">
          <mxGeometry x="310" y="370" width="100" height="50" as="geometry" />
        </mxCell>
        <mxCell id="fHkBKyJmSVLR9acTuAfx-111" value="" style="group" parent="ZRCCH3VUaIyYWiTP1tGq-2" vertex="1" connectable="0">
          <mxGeometry x="30" y="490" width="200" height="170" as="geometry" />
        </mxCell>
        <mxCell id="fHkBKyJmSVLR9acTuAfx-71" value="센서" style="rounded=0;whiteSpace=wrap;html=1;fillColor=#fff2cc;strokeColor=#d6b656;" parent="fHkBKyJmSVLR9acTuAfx-111" vertex="1">
          <mxGeometry x="100" y="60" width="100" height="50" as="geometry" />
        </mxCell>
        <mxCell id="fHkBKyJmSVLR9acTuAfx-72" value="센서명" style="ellipse;whiteSpace=wrap;html=1;flipV=1;flipH=1;fillColor=#f8cecc;strokeColor=#b85450;" parent="fHkBKyJmSVLR9acTuAfx-111" vertex="1">
          <mxGeometry y="60" width="70" height="50" as="geometry" />
        </mxCell>
        <mxCell id="fHkBKyJmSVLR9acTuAfx-73" value="센서값" style="ellipse;whiteSpace=wrap;html=1;flipV=1;flipH=1;fillColor=#f8cecc;strokeColor=#b85450;" parent="fHkBKyJmSVLR9acTuAfx-111" vertex="1">
          <mxGeometry y="120" width="70" height="50" as="geometry" />
        </mxCell>
        <mxCell id="fHkBKyJmSVLR9acTuAfx-74" value="센서코드" style="ellipse;whiteSpace=wrap;html=1;flipV=1;flipH=1;fontStyle=4;fillColor=#f8cecc;strokeColor=#b85450;" parent="fHkBKyJmSVLR9acTuAfx-111" vertex="1">
          <mxGeometry width="70" height="50" as="geometry" />
        </mxCell>
        <mxCell id="fHkBKyJmSVLR9acTuAfx-77" value="" style="endArrow=none;html=1;rounded=0;exitX=1;exitY=0.5;exitDx=0;exitDy=0;entryX=0;entryY=0.5;entryDx=0;entryDy=0;" parent="fHkBKyJmSVLR9acTuAfx-111" source="fHkBKyJmSVLR9acTuAfx-74" target="fHkBKyJmSVLR9acTuAfx-71" edge="1">
          <mxGeometry width="50" height="50" relative="1" as="geometry">
            <mxPoint x="135" as="sourcePoint" />
            <mxPoint x="245" y="-40" as="targetPoint" />
          </mxGeometry>
        </mxCell>
        <mxCell id="fHkBKyJmSVLR9acTuAfx-78" value="" style="endArrow=none;html=1;rounded=0;exitX=1;exitY=0.5;exitDx=0;exitDy=0;entryX=0;entryY=0.5;entryDx=0;entryDy=0;" parent="fHkBKyJmSVLR9acTuAfx-111" source="fHkBKyJmSVLR9acTuAfx-72" target="fHkBKyJmSVLR9acTuAfx-71" edge="1">
          <mxGeometry width="50" height="50" relative="1" as="geometry">
            <mxPoint x="190" y="63" as="sourcePoint" />
            <mxPoint x="300" y="23" as="targetPoint" />
          </mxGeometry>
        </mxCell>
        <mxCell id="fHkBKyJmSVLR9acTuAfx-79" value="" style="endArrow=none;html=1;rounded=0;exitX=1;exitY=0.5;exitDx=0;exitDy=0;entryX=0;entryY=0.5;entryDx=0;entryDy=0;" parent="fHkBKyJmSVLR9acTuAfx-111" source="fHkBKyJmSVLR9acTuAfx-73" target="fHkBKyJmSVLR9acTuAfx-71" edge="1">
          <mxGeometry width="50" height="50" relative="1" as="geometry">
            <mxPoint x="240" y="110" as="sourcePoint" />
            <mxPoint x="350" y="70" as="targetPoint" />
          </mxGeometry>
        </mxCell>
        <mxCell id="fHkBKyJmSVLR9acTuAfx-112" value="" style="endArrow=none;html=1;rounded=0;exitX=1;exitY=0.5;exitDx=0;exitDy=0;entryX=0;entryY=0.5;entryDx=0;entryDy=0;" parent="ZRCCH3VUaIyYWiTP1tGq-2" source="fHkBKyJmSVLR9acTuAfx-1" target="fHkBKyJmSVLR9acTuAfx-110" edge="1">
          <mxGeometry relative="1" as="geometry">
            <mxPoint x="160" y="300" as="sourcePoint" />
            <mxPoint x="320" y="300" as="targetPoint" />
            <Array as="points">
              <mxPoint x="300" y="225" />
              <mxPoint x="300" y="320" />
              <mxPoint x="230" y="320" />
              <mxPoint x="230" y="395" />
            </Array>
          </mxGeometry>
        </mxCell>
        <mxCell id="fHkBKyJmSVLR9acTuAfx-113" value="1" style="resizable=0;html=1;whiteSpace=wrap;align=left;verticalAlign=bottom;" parent="fHkBKyJmSVLR9acTuAfx-112" connectable="0" vertex="1">
          <mxGeometry x="-1" relative="1" as="geometry" />
        </mxCell>
        <mxCell id="fHkBKyJmSVLR9acTuAfx-114" value="N" style="resizable=0;html=1;whiteSpace=wrap;align=right;verticalAlign=bottom;" parent="fHkBKyJmSVLR9acTuAfx-112" connectable="0" vertex="1">
          <mxGeometry x="1" relative="1" as="geometry" />
        </mxCell>
        <mxCell id="fHkBKyJmSVLR9acTuAfx-115" value="" style="endArrow=none;html=1;rounded=0;exitX=1;exitY=0.5;exitDx=0;exitDy=0;entryX=0.44;entryY=1;entryDx=0;entryDy=0;entryPerimeter=0;" parent="ZRCCH3VUaIyYWiTP1tGq-2" source="fHkBKyJmSVLR9acTuAfx-71" target="fHkBKyJmSVLR9acTuAfx-110" edge="1">
          <mxGeometry relative="1" as="geometry">
            <mxPoint x="260" y="470" as="sourcePoint" />
            <mxPoint x="340" y="640" as="targetPoint" />
            <Array as="points">
              <mxPoint x="354" y="575" />
            </Array>
          </mxGeometry>
        </mxCell>
        <mxCell id="fHkBKyJmSVLR9acTuAfx-116" value="N" style="resizable=0;html=1;whiteSpace=wrap;align=left;verticalAlign=bottom;" parent="fHkBKyJmSVLR9acTuAfx-115" connectable="0" vertex="1">
          <mxGeometry x="-1" relative="1" as="geometry" />
        </mxCell>
        <mxCell id="fHkBKyJmSVLR9acTuAfx-117" value="1" style="resizable=0;html=1;whiteSpace=wrap;align=right;verticalAlign=bottom;" parent="fHkBKyJmSVLR9acTuAfx-115" connectable="0" vertex="1">
          <mxGeometry x="1" relative="1" as="geometry">
            <mxPoint x="-5" y="17" as="offset" />
          </mxGeometry>
        </mxCell>
        <mxCell id="fHkBKyJmSVLR9acTuAfx-118" value="" style="endArrow=none;html=1;rounded=0;exitX=0;exitY=0.5;exitDx=0;exitDy=0;entryX=0.86;entryY=1.04;entryDx=0;entryDy=0;entryPerimeter=0;" parent="ZRCCH3VUaIyYWiTP1tGq-2" source="fHkBKyJmSVLR9acTuAfx-83" target="fHkBKyJmSVLR9acTuAfx-110" edge="1">
          <mxGeometry relative="1" as="geometry">
            <mxPoint x="390" y="495" as="sourcePoint" />
            <mxPoint x="514" y="340" as="targetPoint" />
            <Array as="points">
              <mxPoint x="396" y="575" />
            </Array>
          </mxGeometry>
        </mxCell>
        <mxCell id="fHkBKyJmSVLR9acTuAfx-119" value="N" style="resizable=0;html=1;whiteSpace=wrap;align=left;verticalAlign=bottom;" parent="fHkBKyJmSVLR9acTuAfx-118" connectable="0" vertex="1">
          <mxGeometry x="-1" relative="1" as="geometry">
            <mxPoint x="-15" as="offset" />
          </mxGeometry>
        </mxCell>
        <mxCell id="fHkBKyJmSVLR9acTuAfx-120" value="1" style="resizable=0;html=1;whiteSpace=wrap;align=right;verticalAlign=bottom;" parent="fHkBKyJmSVLR9acTuAfx-118" connectable="0" vertex="1">
          <mxGeometry x="1" relative="1" as="geometry">
            <mxPoint x="-5" y="17" as="offset" />
          </mxGeometry>
        </mxCell>
        <mxCell id="fHkBKyJmSVLR9acTuAfx-121" value="" style="endArrow=none;html=1;rounded=0;exitX=0.83;exitY=-0.04;exitDx=0;exitDy=0;entryX=0;entryY=0.5;entryDx=0;entryDy=0;exitPerimeter=0;" parent="ZRCCH3VUaIyYWiTP1tGq-2" source="fHkBKyJmSVLR9acTuAfx-110" target="fHkBKyJmSVLR9acTuAfx-23" edge="1">
          <mxGeometry relative="1" as="geometry">
            <mxPoint x="420" y="430" as="sourcePoint" />
            <mxPoint x="544" y="275" as="targetPoint" />
            <Array as="points">
              <mxPoint x="393" y="145" />
            </Array>
          </mxGeometry>
        </mxCell>
        <mxCell id="fHkBKyJmSVLR9acTuAfx-122" value="1" style="resizable=0;html=1;whiteSpace=wrap;align=left;verticalAlign=bottom;" parent="fHkBKyJmSVLR9acTuAfx-121" connectable="0" vertex="1">
          <mxGeometry x="-1" relative="1" as="geometry" />
        </mxCell>
        <mxCell id="fHkBKyJmSVLR9acTuAfx-123" value="N" style="resizable=0;html=1;whiteSpace=wrap;align=right;verticalAlign=bottom;" parent="fHkBKyJmSVLR9acTuAfx-121" connectable="0" vertex="1">
          <mxGeometry x="1" relative="1" as="geometry">
            <mxPoint x="-5" y="17" as="offset" />
          </mxGeometry>
        </mxCell>
        <mxCell id="fHkBKyJmSVLR9acTuAfx-124" style="edgeStyle=orthogonalEdgeStyle;rounded=0;orthogonalLoop=1;jettySize=auto;html=1;exitX=1;exitY=0.5;exitDx=0;exitDy=0;" parent="ZRCCH3VUaIyYWiTP1tGq-2" source="fHkBKyJmSVLR9acTuAfx-125" edge="1">
          <mxGeometry relative="1" as="geometry">
            <mxPoint x="540" y="335" as="targetPoint" />
          </mxGeometry>
        </mxCell>
        <mxCell id="fHkBKyJmSVLR9acTuAfx-125" value="사용자ID" style="ellipse;whiteSpace=wrap;html=1;flipV=1;flipH=1;fillColor=#f8cecc;strokeColor=#b85450;fontStyle=2" parent="ZRCCH3VUaIyYWiTP1tGq-2" vertex="1">
          <mxGeometry x="470" y="310" width="70" height="50" as="geometry" />
        </mxCell>
        <mxCell id="fHkBKyJmSVLR9acTuAfx-126" value="물고기코드" style="ellipse;whiteSpace=wrap;html=1;flipV=1;flipH=1;fillColor=#f8cecc;strokeColor=#b85450;fontStyle=2" parent="ZRCCH3VUaIyYWiTP1tGq-2" vertex="1">
          <mxGeometry x="470" y="370" width="70" height="50" as="geometry" />
        </mxCell>
        <mxCell id="fHkBKyJmSVLR9acTuAfx-127" value="&lt;u&gt;제품코드&lt;br&gt;&lt;/u&gt;" style="ellipse;whiteSpace=wrap;html=1;flipV=1;flipH=1;fillColor=#f8cecc;strokeColor=#b85450;" parent="ZRCCH3VUaIyYWiTP1tGq-2" vertex="1">
          <mxGeometry x="470" y="250" width="70" height="50" as="geometry" />
        </mxCell>
        <mxCell id="fHkBKyJmSVLR9acTuAfx-128" value="식물코드" style="ellipse;whiteSpace=wrap;html=1;flipV=1;flipH=1;fillColor=#f8cecc;strokeColor=#b85450;fontStyle=2" parent="ZRCCH3VUaIyYWiTP1tGq-2" vertex="1">
          <mxGeometry x="470" y="430" width="70" height="50" as="geometry" />
        </mxCell>
        <mxCell id="fHkBKyJmSVLR9acTuAfx-129" value="센서코드" style="ellipse;whiteSpace=wrap;html=1;flipV=1;flipH=1;fillColor=#f8cecc;strokeColor=#b85450;fontStyle=2" parent="ZRCCH3VUaIyYWiTP1tGq-2" vertex="1">
          <mxGeometry x="470" y="490" width="70" height="50" as="geometry" />
        </mxCell>
        <mxCell id="fHkBKyJmSVLR9acTuAfx-130" value="" style="endArrow=none;html=1;rounded=0;exitX=0;exitY=0.5;exitDx=0;exitDy=0;entryX=1;entryY=0.5;entryDx=0;entryDy=0;" parent="ZRCCH3VUaIyYWiTP1tGq-2" source="fHkBKyJmSVLR9acTuAfx-127" edge="1">
          <mxGeometry width="50" height="50" relative="1" as="geometry">
            <mxPoint x="595" y="310" as="sourcePoint" />
            <mxPoint x="410" y="395" as="targetPoint" />
          </mxGeometry>
        </mxCell>
        <mxCell id="fHkBKyJmSVLR9acTuAfx-131" value="" style="endArrow=none;html=1;rounded=0;exitX=0.965;exitY=0.34;exitDx=0;exitDy=0;entryX=1;entryY=0.5;entryDx=0;entryDy=0;exitPerimeter=0;" parent="ZRCCH3VUaIyYWiTP1tGq-2" source="fHkBKyJmSVLR9acTuAfx-125" edge="1">
          <mxGeometry width="50" height="50" relative="1" as="geometry">
            <mxPoint x="650" y="373" as="sourcePoint" />
            <mxPoint x="410" y="395" as="targetPoint" />
          </mxGeometry>
        </mxCell>
        <mxCell id="fHkBKyJmSVLR9acTuAfx-132" value="" style="endArrow=none;html=1;rounded=0;exitX=0;exitY=0.5;exitDx=0;exitDy=0;entryX=1;entryY=0.5;entryDx=0;entryDy=0;" parent="ZRCCH3VUaIyYWiTP1tGq-2" source="fHkBKyJmSVLR9acTuAfx-126" edge="1">
          <mxGeometry width="50" height="50" relative="1" as="geometry">
            <mxPoint x="700" y="420" as="sourcePoint" />
            <mxPoint x="410" y="395" as="targetPoint" />
          </mxGeometry>
        </mxCell>
        <mxCell id="fHkBKyJmSVLR9acTuAfx-133" value="" style="endArrow=none;html=1;rounded=0;exitX=1;exitY=0.5;exitDx=0;exitDy=0;entryX=0.994;entryY=0.7;entryDx=0;entryDy=0;entryPerimeter=0;" parent="ZRCCH3VUaIyYWiTP1tGq-2" target="fHkBKyJmSVLR9acTuAfx-128" edge="1">
          <mxGeometry width="50" height="50" relative="1" as="geometry">
            <mxPoint x="410" y="395" as="sourcePoint" />
            <mxPoint x="825" y="420" as="targetPoint" />
          </mxGeometry>
        </mxCell>
        <mxCell id="fHkBKyJmSVLR9acTuAfx-134" value="" style="endArrow=none;html=1;rounded=0;entryX=0;entryY=0.5;entryDx=0;entryDy=0;exitX=1;exitY=0.5;exitDx=0;exitDy=0;" parent="ZRCCH3VUaIyYWiTP1tGq-2" target="fHkBKyJmSVLR9acTuAfx-129" edge="1">
          <mxGeometry width="50" height="50" relative="1" as="geometry">
            <mxPoint x="410" y="395" as="sourcePoint" />
            <mxPoint x="842" y="473" as="targetPoint" />
          </mxGeometry>
        </mxCell>
        <mxCell id="ZRCCH3VUaIyYWiTP1tGq-4" value="회원가입" style="ellipse;whiteSpace=wrap;html=1;flipH=0;" parent="1" vertex="1">
          <mxGeometry x="890" y="105" width="160" height="50" as="geometry" />
        </mxCell>
        <mxCell id="ZRCCH3VUaIyYWiTP1tGq-5" value="카카오톡 TTS" style="ellipse;whiteSpace=wrap;html=1;flipH=0;" parent="1" vertex="1">
          <mxGeometry x="180.00000000000006" width="160" height="50" as="geometry" />
        </mxCell>
        <mxCell id="ZRCCH3VUaIyYWiTP1tGq-6" value="문의하기" style="ellipse;whiteSpace=wrap;html=1;flipH=0;" parent="1" vertex="1">
          <mxGeometry x="180.00000000000006" y="80" width="160" height="50" as="geometry" />
        </mxCell>
        <mxCell id="ZRCCH3VUaIyYWiTP1tGq-7" value="내 근처 주차장 찾기" style="ellipse;whiteSpace=wrap;html=1;flipH=0;" parent="1" vertex="1">
          <mxGeometry x="180.00000000000006" y="180" width="160" height="50" as="geometry" />
        </mxCell>
        <mxCell id="ZRCCH3VUaIyYWiTP1tGq-8" value="사용자 정보" style="ellipse;whiteSpace=wrap;html=1;flipH=0;" parent="1" vertex="1">
          <mxGeometry x="180.00000000000006" y="280" width="160" height="50" as="geometry" />
        </mxCell>
        <mxCell id="ZRCCH3VUaIyYWiTP1tGq-12" value="로그인" style="ellipse;whiteSpace=wrap;html=1;flipH=0;" parent="1" vertex="1">
          <mxGeometry x="645" y="105" width="160" height="50" as="geometry" />
        </mxCell>
        <mxCell id="ZRCCH3VUaIyYWiTP1tGq-15" value="" style="endArrow=classic;html=1;rounded=0;dashed=1;exitX=0;exitY=0.5;exitDx=0;exitDy=0;entryX=1;entryY=0.5;entryDx=0;entryDy=0;" parent="1" source="G83yrUDYgcaCiB4_q0mR-7" target="ZRCCH3VUaIyYWiTP1tGq-8" edge="1">
          <mxGeometry width="50" height="50" relative="1" as="geometry">
            <mxPoint x="413" y="270" as="sourcePoint" />
            <mxPoint x="339.9999999999891" y="300" as="targetPoint" />
          </mxGeometry>
        </mxCell>
        <mxCell id="ZRCCH3VUaIyYWiTP1tGq-16" value="&amp;lt;&amp;lt;include&amp;gt;&amp;gt;" style="edgeLabel;html=1;align=center;verticalAlign=middle;resizable=0;points=[];" parent="ZRCCH3VUaIyYWiTP1tGq-15" vertex="1" connectable="0">
          <mxGeometry x="0.576" y="-2" relative="1" as="geometry">
            <mxPoint x="26" y="-11" as="offset" />
          </mxGeometry>
        </mxCell>
        <mxCell id="ZRCCH3VUaIyYWiTP1tGq-23" value="" style="endArrow=classic;html=1;rounded=0;dashed=1;exitX=0.003;exitY=0.623;exitDx=0;exitDy=0;exitPerimeter=0;entryX=1;entryY=0.5;entryDx=0;entryDy=0;" parent="1" source="G83yrUDYgcaCiB4_q0mR-9" target="ZRCCH3VUaIyYWiTP1tGq-5" edge="1">
          <mxGeometry width="50" height="50" relative="1" as="geometry">
            <mxPoint x="389" y="60" as="sourcePoint" />
            <mxPoint x="438.5" y="200" as="targetPoint" />
          </mxGeometry>
        </mxCell>
        <mxCell id="ZRCCH3VUaIyYWiTP1tGq-24" value="&amp;lt;&amp;lt;include&amp;gt;&amp;gt;" style="edgeLabel;html=1;align=center;verticalAlign=middle;resizable=0;points=[];" parent="ZRCCH3VUaIyYWiTP1tGq-23" vertex="1" connectable="0">
          <mxGeometry x="0.576" y="-2" relative="1" as="geometry">
            <mxPoint x="29" y="2" as="offset" />
          </mxGeometry>
        </mxCell>
        <mxCell id="ZRCCH3VUaIyYWiTP1tGq-27" value="운전만해" style="text;html=1;align=center;verticalAlign=middle;resizable=0;points=[];autosize=1;strokeColor=#d6b656;fillColor=#fff2cc;" parent="1" vertex="1">
          <mxGeometry x="20" y="40" width="70" height="30" as="geometry" />
        </mxCell>
        <mxCell id="ZRCCH3VUaIyYWiTP1tGq-28" value="사용자" style="shape=umlActor;verticalLabelPosition=bottom;verticalAlign=top;html=1;outlineConnect=0;" parent="1" vertex="1">
          <mxGeometry x="40" y="100" width="30" height="60" as="geometry" />
        </mxCell>
        <mxCell id="ZRCCH3VUaIyYWiTP1tGq-31" value="" style="endArrow=none;html=1;rounded=0;exitX=1;exitY=0.3333333333333333;exitDx=0;exitDy=0;exitPerimeter=0;strokeWidth=3;entryX=0;entryY=0.5;entryDx=0;entryDy=0;" parent="1" source="ZRCCH3VUaIyYWiTP1tGq-28" target="ZRCCH3VUaIyYWiTP1tGq-5" edge="1">
          <mxGeometry width="50" height="50" relative="1" as="geometry">
            <mxPoint x="-150" y="348" as="sourcePoint" />
            <mxPoint x="110.00000000001" y="240" as="targetPoint" />
          </mxGeometry>
        </mxCell>
        <mxCell id="ZRCCH3VUaIyYWiTP1tGq-33" value="" style="endArrow=classic;html=1;rounded=0;dashed=1;exitX=1;exitY=0;exitDx=0;exitDy=0;entryX=0;entryY=0.5;entryDx=0;entryDy=0;" parent="1" edge="1">
          <mxGeometry width="50" height="50" relative="1" as="geometry">
            <mxPoint x="779.9985424949089" y="-247.67766952965871" as="sourcePoint" />
            <mxPoint x="879.4300000000003" y="-330" as="targetPoint" />
          </mxGeometry>
        </mxCell>
        <mxCell id="ZRCCH3VUaIyYWiTP1tGq-34" value="&amp;lt;&amp;lt;include&amp;gt;&amp;gt;" style="edgeLabel;html=1;align=center;verticalAlign=middle;resizable=0;points=[];" parent="ZRCCH3VUaIyYWiTP1tGq-33" vertex="1" connectable="0">
          <mxGeometry x="0.576" y="-2" relative="1" as="geometry">
            <mxPoint x="-25" y="-8" as="offset" />
          </mxGeometry>
        </mxCell>
        <mxCell id="ZRCCH3VUaIyYWiTP1tGq-35" value="" style="endArrow=classic;html=1;rounded=0;dashed=1;entryX=0;entryY=0.5;entryDx=0;entryDy=0;exitX=1;exitY=0.5;exitDx=0;exitDy=0;" parent="1" edge="1">
          <mxGeometry width="50" height="50" relative="1" as="geometry">
            <mxPoint x="815.4299999999891" y="-230" as="sourcePoint" />
            <mxPoint x="879.4300000000003" y="-267" as="targetPoint" />
          </mxGeometry>
        </mxCell>
        <mxCell id="ZRCCH3VUaIyYWiTP1tGq-36" value="&amp;lt;&amp;lt;include&amp;gt;&amp;gt;" style="edgeLabel;html=1;align=center;verticalAlign=middle;resizable=0;points=[];" parent="ZRCCH3VUaIyYWiTP1tGq-35" vertex="1" connectable="0">
          <mxGeometry x="0.576" y="-2" relative="1" as="geometry">
            <mxPoint x="-25" y="-8" as="offset" />
          </mxGeometry>
        </mxCell>
        <mxCell id="ZRCCH3VUaIyYWiTP1tGq-37" value="" style="endArrow=classic;html=1;rounded=0;dashed=1;exitX=1;exitY=0.5;exitDx=0;exitDy=0;entryX=0;entryY=0.5;entryDx=0;entryDy=0;" parent="1" edge="1">
          <mxGeometry width="50" height="50" relative="1" as="geometry">
            <mxPoint x="815.4299999999891" y="-230" as="sourcePoint" />
            <mxPoint x="879.4300000000003" y="-203" as="targetPoint" />
          </mxGeometry>
        </mxCell>
        <mxCell id="ZRCCH3VUaIyYWiTP1tGq-38" value="&amp;lt;&amp;lt;include&amp;gt;&amp;gt;" style="edgeLabel;html=1;align=center;verticalAlign=middle;resizable=0;points=[];" parent="ZRCCH3VUaIyYWiTP1tGq-37" vertex="1" connectable="0">
          <mxGeometry x="0.576" y="-2" relative="1" as="geometry">
            <mxPoint x="-25" y="-8" as="offset" />
          </mxGeometry>
        </mxCell>
        <mxCell id="ZRCCH3VUaIyYWiTP1tGq-39" value="" style="endArrow=classic;html=1;rounded=0;dashed=1;exitX=1;exitY=0.5;exitDx=0;exitDy=0;entryX=0;entryY=0.5;entryDx=0;entryDy=0;" parent="1" source="ZRCCH3VUaIyYWiTP1tGq-12" target="ZRCCH3VUaIyYWiTP1tGq-4" edge="1">
          <mxGeometry width="50" height="50" relative="1" as="geometry">
            <mxPoint x="759.9985424949089" y="37.677669529658715" as="sourcePoint" />
            <mxPoint x="859.4300000000003" y="110" as="targetPoint" />
          </mxGeometry>
        </mxCell>
        <mxCell id="ZRCCH3VUaIyYWiTP1tGq-40" value="&amp;lt;&amp;lt;include&amp;gt;&amp;gt;" style="edgeLabel;html=1;align=center;verticalAlign=middle;resizable=0;points=[];" parent="ZRCCH3VUaIyYWiTP1tGq-39" vertex="1" connectable="0">
          <mxGeometry x="0.576" y="-2" relative="1" as="geometry">
            <mxPoint x="-37" y="-12" as="offset" />
          </mxGeometry>
        </mxCell>
        <mxCell id="G83yrUDYgcaCiB4_q0mR-6" value="1:1 문의 접수" style="ellipse;whiteSpace=wrap;html=1;flipH=0;" vertex="1" parent="1">
          <mxGeometry x="580" y="-50" width="160" height="50" as="geometry" />
        </mxCell>
        <mxCell id="G83yrUDYgcaCiB4_q0mR-7" value="업데이트 내용 확인" style="ellipse;whiteSpace=wrap;html=1;flipH=0;" vertex="1" parent="1">
          <mxGeometry x="430" y="280" width="160" height="50" as="geometry" />
        </mxCell>
        <mxCell id="G83yrUDYgcaCiB4_q0mR-8" value="친구목록 불러오기" style="ellipse;whiteSpace=wrap;html=1;flipH=0;" vertex="1" parent="1">
          <mxGeometry x="380.00000000000006" y="-140" width="160" height="50" as="geometry" />
        </mxCell>
        <mxCell id="G83yrUDYgcaCiB4_q0mR-9" value="알림 허용 설정" style="ellipse;whiteSpace=wrap;html=1;flipH=0;" vertex="1" parent="1">
          <mxGeometry x="380" y="-75" width="160" height="50" as="geometry" />
        </mxCell>
        <mxCell id="G83yrUDYgcaCiB4_q0mR-11" value="" style="endArrow=none;html=1;rounded=0;exitX=1;exitY=0.3333333333333333;exitDx=0;exitDy=0;exitPerimeter=0;strokeWidth=3;entryX=0;entryY=0.5;entryDx=0;entryDy=0;" edge="1" parent="1" source="ZRCCH3VUaIyYWiTP1tGq-28" target="ZRCCH3VUaIyYWiTP1tGq-6">
          <mxGeometry width="50" height="50" relative="1" as="geometry">
            <mxPoint x="-140" y="358" as="sourcePoint" />
            <mxPoint x="120.00000000001" y="250" as="targetPoint" />
          </mxGeometry>
        </mxCell>
        <mxCell id="G83yrUDYgcaCiB4_q0mR-12" value="" style="endArrow=none;html=1;rounded=0;exitX=1;exitY=0.3333333333333333;exitDx=0;exitDy=0;exitPerimeter=0;strokeWidth=3;entryX=0;entryY=0.5;entryDx=0;entryDy=0;" edge="1" parent="1" source="ZRCCH3VUaIyYWiTP1tGq-28" target="ZRCCH3VUaIyYWiTP1tGq-7">
          <mxGeometry width="50" height="50" relative="1" as="geometry">
            <mxPoint x="-130" y="368" as="sourcePoint" />
            <mxPoint x="130.00000000001" y="260" as="targetPoint" />
          </mxGeometry>
        </mxCell>
        <mxCell id="G83yrUDYgcaCiB4_q0mR-13" value="" style="endArrow=none;html=1;rounded=0;strokeWidth=3;entryX=0;entryY=0.5;entryDx=0;entryDy=0;exitX=1;exitY=0.3333333333333333;exitDx=0;exitDy=0;exitPerimeter=0;" edge="1" parent="1" source="ZRCCH3VUaIyYWiTP1tGq-28" target="ZRCCH3VUaIyYWiTP1tGq-8">
          <mxGeometry width="50" height="50" relative="1" as="geometry">
            <mxPoint x="90" y="120" as="sourcePoint" />
            <mxPoint x="140.00000000001" y="270" as="targetPoint" />
          </mxGeometry>
        </mxCell>
        <mxCell id="G83yrUDYgcaCiB4_q0mR-15" value="" style="endArrow=classic;html=1;rounded=0;dashed=1;exitX=0;exitY=0.5;exitDx=0;exitDy=0;entryX=1;entryY=0.5;entryDx=0;entryDy=0;" edge="1" parent="1" source="G83yrUDYgcaCiB4_q0mR-8" target="ZRCCH3VUaIyYWiTP1tGq-5">
          <mxGeometry width="50" height="50" relative="1" as="geometry">
            <mxPoint x="389" y="75" as="sourcePoint" />
            <mxPoint x="438.5" y="215" as="targetPoint" />
          </mxGeometry>
        </mxCell>
        <mxCell id="G83yrUDYgcaCiB4_q0mR-16" value="&amp;lt;&amp;lt;include&amp;gt;&amp;gt;" style="edgeLabel;html=1;align=center;verticalAlign=middle;resizable=0;points=[];" vertex="1" connectable="0" parent="G83yrUDYgcaCiB4_q0mR-15">
          <mxGeometry x="0.576" y="-2" relative="1" as="geometry">
            <mxPoint x="26" y="-28" as="offset" />
          </mxGeometry>
        </mxCell>
        <mxCell id="G83yrUDYgcaCiB4_q0mR-17" value="답변 사항 목록" style="ellipse;whiteSpace=wrap;html=1;flipH=0;" vertex="1" parent="1">
          <mxGeometry x="580" y="10" width="160" height="50" as="geometry" />
        </mxCell>
        <mxCell id="G83yrUDYgcaCiB4_q0mR-18" value="비밀번호 변경" style="ellipse;whiteSpace=wrap;html=1;flipH=0;" vertex="1" parent="1">
          <mxGeometry x="430" y="350" width="160" height="50" as="geometry" />
        </mxCell>
        <mxCell id="G83yrUDYgcaCiB4_q0mR-19" value="회원탈퇴" style="ellipse;whiteSpace=wrap;html=1;flipH=0;" vertex="1" parent="1">
          <mxGeometry x="430" y="420" width="160" height="50" as="geometry" />
        </mxCell>
        <mxCell id="G83yrUDYgcaCiB4_q0mR-20" value="" style="endArrow=classic;html=1;rounded=0;dashed=1;exitX=0;exitY=0.5;exitDx=0;exitDy=0;" edge="1" parent="1" source="G83yrUDYgcaCiB4_q0mR-18">
          <mxGeometry width="50" height="50" relative="1" as="geometry">
            <mxPoint x="403" y="340" as="sourcePoint" />
            <mxPoint x="340" y="305" as="targetPoint" />
          </mxGeometry>
        </mxCell>
        <mxCell id="G83yrUDYgcaCiB4_q0mR-21" value="&amp;lt;&amp;lt;include&amp;gt;&amp;gt;" style="edgeLabel;html=1;align=center;verticalAlign=middle;resizable=0;points=[];" vertex="1" connectable="0" parent="G83yrUDYgcaCiB4_q0mR-20">
          <mxGeometry x="0.576" y="-2" relative="1" as="geometry">
            <mxPoint y="32" as="offset" />
          </mxGeometry>
        </mxCell>
        <mxCell id="G83yrUDYgcaCiB4_q0mR-22" value="" style="endArrow=classic;html=1;rounded=0;dashed=1;exitX=0;exitY=0.5;exitDx=0;exitDy=0;entryX=1;entryY=0.5;entryDx=0;entryDy=0;" edge="1" parent="1" source="G83yrUDYgcaCiB4_q0mR-19" target="ZRCCH3VUaIyYWiTP1tGq-8">
          <mxGeometry width="50" height="50" relative="1" as="geometry">
            <mxPoint x="360.5" y="390" as="sourcePoint" />
            <mxPoint x="287.5" y="420" as="targetPoint" />
          </mxGeometry>
        </mxCell>
        <mxCell id="G83yrUDYgcaCiB4_q0mR-23" value="&amp;lt;&amp;lt;include&amp;gt;&amp;gt;" style="edgeLabel;html=1;align=center;verticalAlign=middle;resizable=0;points=[];" vertex="1" connectable="0" parent="G83yrUDYgcaCiB4_q0mR-22">
          <mxGeometry x="0.576" y="-2" relative="1" as="geometry">
            <mxPoint x="26" y="-11" as="offset" />
          </mxGeometry>
        </mxCell>
        <mxCell id="G83yrUDYgcaCiB4_q0mR-24" value="" style="endArrow=classic;html=1;rounded=0;dashed=1;exitX=0;exitY=0.5;exitDx=0;exitDy=0;entryX=1;entryY=0.5;entryDx=0;entryDy=0;" edge="1" parent="1" source="G83yrUDYgcaCiB4_q0mR-6" target="ZRCCH3VUaIyYWiTP1tGq-6">
          <mxGeometry width="50" height="50" relative="1" as="geometry">
            <mxPoint x="430" y="76" as="sourcePoint" />
            <mxPoint x="330" y="75" as="targetPoint" />
          </mxGeometry>
        </mxCell>
        <mxCell id="G83yrUDYgcaCiB4_q0mR-25" value="&amp;lt;&amp;lt;include&amp;gt;&amp;gt;" style="edgeLabel;html=1;align=center;verticalAlign=middle;resizable=0;points=[];" vertex="1" connectable="0" parent="G83yrUDYgcaCiB4_q0mR-24">
          <mxGeometry x="0.576" y="-2" relative="1" as="geometry">
            <mxPoint x="200" y="24" as="offset" />
          </mxGeometry>
        </mxCell>
        <mxCell id="G83yrUDYgcaCiB4_q0mR-26" value="" style="endArrow=classic;html=1;rounded=0;dashed=1;exitX=0;exitY=0.5;exitDx=0;exitDy=0;entryX=0.975;entryY=0.668;entryDx=0;entryDy=0;entryPerimeter=0;" edge="1" parent="1" source="G83yrUDYgcaCiB4_q0mR-17" target="ZRCCH3VUaIyYWiTP1tGq-6">
          <mxGeometry width="50" height="50" relative="1" as="geometry">
            <mxPoint x="413" y="140" as="sourcePoint" />
            <mxPoint x="323" y="135" as="targetPoint" />
          </mxGeometry>
        </mxCell>
        <mxCell id="G83yrUDYgcaCiB4_q0mR-27" value="&amp;lt;&amp;lt;include&amp;gt;&amp;gt;" style="edgeLabel;html=1;align=center;verticalAlign=middle;resizable=0;points=[];" vertex="1" connectable="0" parent="G83yrUDYgcaCiB4_q0mR-26">
          <mxGeometry x="0.576" y="-2" relative="1" as="geometry">
            <mxPoint x="193" y="27" as="offset" />
          </mxGeometry>
        </mxCell>
        <mxCell id="G83yrUDYgcaCiB4_q0mR-31" value="" style="endArrow=classic;html=1;rounded=0;dashed=1;exitX=1;exitY=0;exitDx=0;exitDy=0;entryX=0.084;entryY=0.757;entryDx=0;entryDy=0;entryPerimeter=0;" edge="1" parent="1" source="ZRCCH3VUaIyYWiTP1tGq-8" target="ZRCCH3VUaIyYWiTP1tGq-12">
          <mxGeometry width="50" height="50" relative="1" as="geometry">
            <mxPoint x="390" y="230" as="sourcePoint" />
            <mxPoint x="470" y="230" as="targetPoint" />
          </mxGeometry>
        </mxCell>
        <mxCell id="G83yrUDYgcaCiB4_q0mR-32" value="&amp;lt;&amp;lt;include&amp;gt;&amp;gt;" style="edgeLabel;html=1;align=center;verticalAlign=middle;resizable=0;points=[];" vertex="1" connectable="0" parent="G83yrUDYgcaCiB4_q0mR-31">
          <mxGeometry x="0.576" y="-2" relative="1" as="geometry">
            <mxPoint x="-7" y="5" as="offset" />
          </mxGeometry>
        </mxCell>
        <mxCell id="G83yrUDYgcaCiB4_q0mR-33" value="" style="endArrow=classic;html=1;rounded=0;dashed=1;exitX=1;exitY=0.5;exitDx=0;exitDy=0;entryX=0.027;entryY=0.673;entryDx=0;entryDy=0;entryPerimeter=0;" edge="1" parent="1" source="ZRCCH3VUaIyYWiTP1tGq-7" target="ZRCCH3VUaIyYWiTP1tGq-12">
          <mxGeometry width="50" height="50" relative="1" as="geometry">
            <mxPoint x="327" y="247" as="sourcePoint" />
            <mxPoint x="675" y="110" as="targetPoint" />
          </mxGeometry>
        </mxCell>
        <mxCell id="G83yrUDYgcaCiB4_q0mR-34" value="&amp;lt;&amp;lt;include&amp;gt;&amp;gt;" style="edgeLabel;html=1;align=center;verticalAlign=middle;resizable=0;points=[];" vertex="1" connectable="0" parent="G83yrUDYgcaCiB4_q0mR-33">
          <mxGeometry x="0.576" y="-2" relative="1" as="geometry">
            <mxPoint x="-184" y="-55" as="offset" />
          </mxGeometry>
        </mxCell>
        <mxCell id="G83yrUDYgcaCiB4_q0mR-35" value="" style="endArrow=classic;html=1;rounded=0;dashed=1;exitX=0.985;exitY=0.69;exitDx=0;exitDy=0;entryX=0.058;entryY=0.323;entryDx=0;entryDy=0;entryPerimeter=0;exitPerimeter=0;" edge="1" parent="1" source="ZRCCH3VUaIyYWiTP1tGq-5" target="ZRCCH3VUaIyYWiTP1tGq-12">
          <mxGeometry width="50" height="50" relative="1" as="geometry">
            <mxPoint x="413" y="50" as="sourcePoint" />
            <mxPoint x="769" y="-89" as="targetPoint" />
          </mxGeometry>
        </mxCell>
        <mxCell id="G83yrUDYgcaCiB4_q0mR-36" value="&amp;lt;&amp;lt;include&amp;gt;&amp;gt;" style="edgeLabel;html=1;align=center;verticalAlign=middle;resizable=0;points=[];" vertex="1" connectable="0" parent="G83yrUDYgcaCiB4_q0mR-35">
          <mxGeometry x="0.576" y="-2" relative="1" as="geometry">
            <mxPoint x="-196" y="-35" as="offset" />
          </mxGeometry>
        </mxCell>
        <mxCell id="G83yrUDYgcaCiB4_q0mR-38" value="" style="endArrow=classic;html=1;rounded=0;dashed=1;exitX=1;exitY=1;exitDx=0;exitDy=0;entryX=0;entryY=0.5;entryDx=0;entryDy=0;" edge="1" parent="1" source="ZRCCH3VUaIyYWiTP1tGq-6" target="ZRCCH3VUaIyYWiTP1tGq-12">
          <mxGeometry width="50" height="50" relative="1" as="geometry">
            <mxPoint x="320" y="155" as="sourcePoint" />
            <mxPoint x="636" y="241" as="targetPoint" />
          </mxGeometry>
        </mxCell>
        <mxCell id="G83yrUDYgcaCiB4_q0mR-39" value="&amp;lt;&amp;lt;include&amp;gt;&amp;gt;" style="edgeLabel;html=1;align=center;verticalAlign=middle;resizable=0;points=[];" vertex="1" connectable="0" parent="G83yrUDYgcaCiB4_q0mR-38">
          <mxGeometry x="0.576" y="-2" relative="1" as="geometry">
            <mxPoint x="-16" y="25" as="offset" />
          </mxGeometry>
        </mxCell>
      </root>
    </mxGraphModel>
  </diagram>
</mxfile>
